<svg width="47" height="49" viewBox="0 0 47 49" fill="none" xmlns="http://www.w3.org/2000/svg">
<path d="M6.90405 13.335V21.1472C6.90405 21.7069 6.89828 22.2608 6.89828 22.8205C5.09811 21.2915 3.30371 19.7567 1.50355 18.2277C1.49201 18.222 1.48624 18.2104 1.48047 18.2046C2.10937 17.6392 2.73251 17.0795 3.36141 16.5199C4.54421 15.4582 5.72702 14.3966 6.90405 13.335Z" fill="url(#paint0_linear_1213_19781)"/>
<path d="M46.1679 18.205C46.1563 18.2108 46.1506 18.2223 46.139 18.2281C44.9331 19.2551 43.7273 20.2821 42.5214 21.3092C41.679 22.0246 40.8424 22.7401 40 23.4555C40.0462 22.9593 40.0923 22.4631 40.1385 21.9669C40.2539 20.7206 40.375 19.4744 40.4904 18.2281C40.6058 16.9703 40.727 15.7183 40.8482 14.4604C40.877 14.1316 40.9116 13.8085 40.9405 13.4854C41.2463 13.7623 41.5578 14.0392 41.8636 14.3162C43.283 15.5971 44.6966 16.878 46.116 18.1589C46.1333 18.1762 46.1506 18.1877 46.1679 18.205Z" fill="url(#paint1_linear_1213_19781)"/>
<path d="M46.757 46.1596C46.757 46.2635 46.7224 46.3904 46.7397 46.4885C46.734 46.5231 46.7282 46.5577 46.7167 46.5866C46.6936 46.6731 46.6705 46.7596 46.6417 46.8462C46.6301 46.875 46.6243 46.8924 46.6243 46.9097C46.5897 47.0308 46.7224 46.7193 46.6243 46.9097C46.6243 46.9154 46.6186 46.9212 46.6128 46.927C46.5609 47.0308 46.5089 47.1289 46.4455 47.227C46.4166 47.2674 46.3878 47.3078 46.3589 47.3539C46.3474 47.3712 46.3416 47.3828 46.3359 47.3943C46.2839 47.452 46.2147 47.5097 46.2032 47.527C46.1916 47.5386 46.1281 47.6078 46.0704 47.6655C46.0589 47.6713 46.0474 47.677 46.0358 47.6886C45.9954 47.7174 45.9551 47.7463 45.9089 47.7751C45.8223 47.8271 45.7358 47.879 45.6435 47.9251C45.6435 47.9251 45.6262 47.9367 45.6031 47.9482C45.5916 47.954 45.58 47.954 45.5685 47.9598C45.4704 47.9886 45.3723 48.0232 45.2742 48.0463C45.2281 48.0578 45.1819 48.0694 45.1357 48.0752C44.5299 48.0925 43.9241 48.0867 43.3183 48.0867H2.7799C2.75105 48.0867 2.7222 48.0867 2.69913 48.0867C2.6472 48.0867 2.5895 48.0809 2.53757 48.0752H2.5318C2.2837 48.0694 2.79144 48.1329 2.5318 48.0752C2.44526 48.0578 2.35294 48.0405 2.26639 48.0117C2.21447 48.0002 2.16831 47.9828 2.11638 47.9655C2.10484 47.9598 2.09907 47.9598 2.08753 47.954C2.08176 47.954 2.08176 47.954 2.07599 47.954C2.04714 47.9425 2.02406 47.9309 2.01829 47.9309C2.01829 47.9309 2.01252 47.9309 2.01252 47.9251C2.01252 47.9251 2.02406 47.9251 2.0356 47.9309C1.98944 47.9078 1.94906 47.8848 1.9029 47.8617C1.80481 47.804 1.70673 47.7463 1.61441 47.6828C1.61441 47.6828 1.61441 47.6828 1.60864 47.6828C1.57979 47.654 1.55094 47.6309 1.55094 47.6309C1.47594 47.5616 1.4067 47.4924 1.33746 47.4174C1.33169 47.4116 1.31438 47.3943 1.29707 47.3712C1.23938 47.2789 1.17591 47.1924 1.12398 47.1001C1.10667 47.077 1.06628 47.0135 1.03166 46.9501C1.03166 46.9558 1.02012 46.9327 1.00858 46.9097C1.01435 46.9212 1.02012 46.9385 1.03166 46.9501C1.03166 46.9443 1.03166 46.927 1.02012 46.8866C1.00858 46.8404 0.985506 46.7885 0.973966 46.7423C0.945117 46.6443 0.922038 46.5404 0.898959 46.4365C0.898959 46.425 0.893189 46.4135 0.893189 46.4019C0.893189 46.3615 0.893189 46.3154 0.893189 46.3096C0.893189 46.2577 0.893189 46.2058 0.893189 46.1538C0.88742 45.2076 0.893189 44.2613 0.893189 43.3151V20.7207C1.86251 21.5458 2.8376 22.3766 3.80692 23.2017C5.0128 24.2287 6.21291 25.2557 7.41879 26.277C7.45341 26.3058 7.48803 26.3347 7.52842 26.3693L7.53419 26.3751C7.55727 26.3982 7.58035 26.4155 7.6092 26.4385C8.16886 26.9174 8.72853 27.3963 9.2882 27.8694C11.1922 29.4965 13.102 31.1178 15.0118 32.7449C16.2177 33.7719 17.4293 34.8047 18.6352 35.8317C19.2757 36.3741 19.9161 36.9222 20.5565 37.4646C21.0527 37.8858 21.5489 38.3127 22.0451 38.7339C22.1317 38.8089 22.2182 38.8782 22.3048 38.9532C22.3106 38.9532 22.3106 38.9589 22.3163 38.9589C22.3279 38.9705 22.3452 38.982 22.3567 38.9935C22.3798 39.0109 22.4029 39.0282 22.426 39.0455C23.3549 39.7032 24.4858 39.6571 25.3916 38.9301C25.4089 38.9128 25.432 38.9012 25.4493 38.8839C25.4551 38.8782 25.4608 38.8724 25.4666 38.8666C25.6224 38.7339 25.7724 38.607 25.9282 38.4743C26.759 37.7704 27.5841 37.0607 28.415 36.3568C28.7669 36.0567 29.1189 35.7567 29.4708 35.4567C29.4939 35.4394 29.517 35.4163 29.5343 35.399C31.3979 33.8123 33.2558 32.2256 35.1194 30.6447C35.3848 30.4139 35.656 30.1889 35.9214 29.9581C36.7004 29.2946 37.4735 28.6311 38.2524 27.9733C39.6545 26.779 41.0565 25.5846 42.4586 24.3903C43.8952 23.1671 45.3261 21.9439 46.7628 20.7207V45.2941C46.757 45.5826 46.7628 45.8711 46.757 46.1596Z" fill="url(#paint2_linear_1213_19781)"/>
<path d="M39.4691 4.5479C39.4691 4.63445 39.4633 4.72099 39.4576 4.80754C39.296 6.76926 39.0883 8.72521 38.9037 10.6869C38.8921 10.8196 38.8806 10.9466 38.869 11.0793L38.6036 13.9122C38.4652 15.3489 38.3325 16.7856 38.194 18.228C38.1017 19.2262 38.0036 20.2243 37.9113 21.2225C37.9113 21.2283 37.9113 21.2341 37.9113 21.2398C37.7728 22.6938 37.5939 24.1478 37.4843 25.6075C37.1035 25.9306 36.7285 26.2538 36.3477 26.5769V3.04199C36.9131 3.09392 37.4785 3.14585 38.044 3.20354C38.1017 3.20931 38.1767 3.22662 38.2459 3.23816C38.2632 3.2497 38.3036 3.25547 38.3613 3.24393C38.3959 3.2497 38.4305 3.26124 38.4652 3.26701C38.4882 3.27278 38.569 3.29009 38.6383 3.3074C38.644 3.31317 38.6613 3.32471 38.6902 3.33625C38.7363 3.3651 38.7767 3.38241 38.8229 3.41126C38.869 3.44011 38.9094 3.46895 38.9498 3.49203H38.9556C39.0248 3.56127 39.0998 3.62474 39.1691 3.69974C39.1748 3.70551 39.1864 3.72282 39.2037 3.74013C39.2095 3.7459 39.2095 3.75167 39.2152 3.76321C39.2614 3.83822 39.3018 3.91323 39.3479 3.98823C39.3422 3.97092 39.3364 3.95361 39.3422 3.95361C39.3479 3.95361 39.3652 3.99977 39.3768 4.04016C39.371 4.03439 39.371 4.02862 39.3652 4.02285C39.3595 4.01131 39.3537 3.99977 39.3479 3.98823C39.3595 4.01131 39.371 4.03439 39.3826 4.0517C39.3826 4.04593 39.3826 4.04593 39.3768 4.04016C39.4056 4.09209 39.3999 4.08055 39.3826 4.0517C39.3941 4.08632 39.4056 4.12094 39.4056 4.12671C39.4345 4.21325 39.446 4.30557 39.4691 4.39212C39.4633 4.44404 39.4691 4.49597 39.4691 4.5479Z" fill="url(#paint3_linear_1213_19781)"/>
<path d="M34.0248 1.29395C34.0018 1.21317 33.996 1.11509 33.9729 1.04008C33.9614 1.01123 33.9556 0.976614 33.9441 0.947765C33.9383 0.930456 33.9267 0.901607 33.9152 0.872758C33.8806 0.81506 33.8402 0.740053 33.8287 0.728514C33.8114 0.693895 33.7825 0.665047 33.7652 0.630428C33.7133 0.5785 33.6671 0.515033 33.6152 0.463105C33.5863 0.440026 33.5632 0.411177 33.5344 0.388098C33.5517 0.399637 33.5632 0.411177 33.5632 0.405407C33.5632 0.399637 33.5344 0.376558 33.494 0.353479C33.4998 0.353479 33.4998 0.359249 33.5056 0.365018C33.5113 0.370788 33.5229 0.382328 33.5286 0.388098C33.5171 0.376558 33.4998 0.359249 33.4825 0.347709C33.4132 0.307321 33.3209 0.255393 33.3036 0.243853C33.2978 0.243853 33.2748 0.226544 33.2459 0.209235C33.2228 0.203465 33.1998 0.191926 33.1882 0.186156C33.1074 0.163077 33.0267 0.134228 32.9459 0.116919C32.9228 0.111149 32.894 0.111149 32.8651 0.105379C32.8132 0.105379 32.7555 0.0996094 32.7036 0.0996094H32.6459C32.5189 0.0996094 32.3862 0.0996094 32.2593 0.0996094H10.5477C10.49 0.0996094 10.4265 0.105379 10.3688 0.105379C10.3342 0.111149 10.2996 0.116919 10.2649 0.128458C10.2419 0.134228 10.1438 0.157307 10.063 0.180386C10.0572 0.186156 10.0515 0.186156 10.0399 0.191926C9.99953 0.220774 9.9476 0.238084 9.90722 0.261163C9.90145 0.266933 9.82067 0.313091 9.7572 0.347709C9.74566 0.359249 9.72835 0.376558 9.71104 0.388098C9.72258 0.376558 9.72835 0.370788 9.73989 0.359249C9.70527 0.382328 9.67643 0.399637 9.6822 0.405407C9.6822 0.411177 9.69373 0.405407 9.70527 0.393867C9.67642 0.416946 9.65335 0.440026 9.63027 0.463105C9.58411 0.509263 9.54372 0.555421 9.50333 0.595809C9.49756 0.601579 9.49756 0.601579 9.49179 0.607349C9.48602 0.613119 9.48602 0.618888 9.48025 0.624658C9.48025 0.630428 9.47448 0.636198 9.47448 0.636198C9.47448 0.636198 9.47448 0.636198 9.47448 0.630428C9.46871 0.641968 9.46294 0.647737 9.45717 0.653507C9.43987 0.688125 9.41679 0.716974 9.39948 0.751593C9.3764 0.797751 9.35332 0.838139 9.32447 0.884297C9.31293 0.901607 9.30716 0.913146 9.30139 0.924686C9.27831 0.999693 9.261 1.08624 9.25523 1.10355C9.24946 1.13817 9.23792 1.16702 9.23215 1.20163C9.23792 1.25933 9.21484 1.37473 9.21484 1.42089V1.43242C9.21484 1.46127 9.21484 1.49012 9.21484 1.52474C9.21484 1.66899 9.21484 1.819 9.21484 1.96901V24.7769C10.7438 26.0232 12.2151 27.3444 13.7153 28.6253L13.721 28.6311C16.1386 30.6909 18.5561 32.7507 20.9736 34.8105C21.7641 35.4798 22.5488 36.1549 23.3392 36.8242C23.4835 36.9453 23.6335 37.0723 23.7777 37.1934C23.7835 37.1934 23.795 37.1992 23.8066 37.2107C23.8123 37.2107 23.8123 37.2107 23.8181 37.2107C23.8239 37.2107 23.8354 37.205 23.8412 37.205C23.847 37.1992 23.8527 37.1992 23.8585 37.1934C24.7528 36.4145 25.6587 35.6471 26.5645 34.8798C26.6395 34.8163 26.7145 34.7528 26.7895 34.6894C27.3896 34.1816 27.9839 33.6739 28.5839 33.1661C28.8494 32.9411 29.109 32.7161 29.3744 32.4911C30.9207 31.1756 32.4612 29.8601 34.0075 28.5445C33.9844 27.5868 34.0248 26.6174 34.0248 25.6597V1.77861C34.0248 1.7613 34.0248 1.74399 34.0248 1.72091V1.42666C34.0306 1.38627 34.0306 1.34011 34.0248 1.29395ZM17.7195 5.89245H25.5317C26.178 5.89245 26.6568 6.42327 26.6857 7.04641C26.7145 7.66954 26.1376 8.20036 25.5317 8.20036H17.7195C17.0733 8.20036 16.5944 7.66954 16.5655 7.04641C16.5367 6.42327 17.1137 5.89245 17.7195 5.89245ZM29.1667 20.5188C29.1667 20.5246 29.1667 20.5246 29.1667 20.5303C29.1609 20.9515 29.1148 21.3612 29.0571 21.7766C28.6013 24.7711 26.1318 27.3156 23.1661 27.8926C21.5448 28.2099 19.9235 28.008 18.4234 27.3329C17.0733 26.7213 15.9193 25.6539 15.1577 24.3961C14.3672 23.0921 13.9807 21.5112 14.1018 19.9938C14.148 19.3879 14.2692 18.7994 14.448 18.234C14.748 17.305 15.2212 16.4396 15.8558 15.6607C17.8003 13.2778 21.2794 12.3431 24.1585 13.422C26.3857 14.2528 28.0762 16.0472 28.7859 18.234C29.0224 18.9552 29.1494 19.7168 29.1552 20.5073V20.5188H29.1667Z" fill="url(#paint4_linear_1213_19781)"/>
<defs>
<linearGradient id="paint0_linear_1213_19781" x1="6.41593" y1="22.2988" x2="-1.25095" y2="17.6501" gradientUnits="userSpaceOnUse">
<stop stop-color="#E28B27"/>
<stop offset="1" stop-color="#F18509" stop-opacity="0.34"/>
</linearGradient>
<linearGradient id="paint1_linear_1213_19781" x1="45.6128" y1="22.9071" x2="37.2761" y2="17.4381" gradientUnits="userSpaceOnUse">
<stop stop-color="#E28B27"/>
<stop offset="1" stop-color="#F18509" stop-opacity="0.34"/>
</linearGradient>
<linearGradient id="paint2_linear_1213_19781" x1="42.6343" y1="46.5937" x2="21.2989" y2="8.68664" gradientUnits="userSpaceOnUse">
<stop stop-color="#E28B27"/>
<stop offset="1" stop-color="#F18509" stop-opacity="0.34"/>
</linearGradient>
<linearGradient id="paint3_linear_1213_19781" x1="39.1882" y1="25.2824" x2="33.2705" y2="24.4501" gradientUnits="userSpaceOnUse">
<stop stop-color="#E28B27"/>
<stop offset="1" stop-color="#F18509" stop-opacity="0.34"/>
</linearGradient>
<linearGradient id="paint4_linear_1213_19781" x1="31.7959" y1="35.1696" x2="-0.127948" y2="12.5337" gradientUnits="userSpaceOnUse">
<stop stop-color="#E28B27"/>
<stop offset="1" stop-color="#F18509" stop-opacity="0.34"/>
</linearGradient>
</defs>
</svg>
