<svg width="49" height="49" viewBox="0 0 49 49" fill="none" xmlns="http://www.w3.org/2000/svg">
<path d="M47.0697 7.73089H39.67V4.12925H40.0629C41.1761 4.12925 42.0274 3.27796 42.0274 2.16472C42.0274 1.05149 41.1761 0.200195 40.0629 0.200195H9.9401C8.82687 0.200195 7.97557 1.05149 7.97557 2.16472C7.97557 3.27796 8.82687 4.12925 9.9401 4.12925H10.333V7.73089H2.93328C1.82005 7.73089 0.96875 8.58219 0.96875 9.69542V11.7254C0.96875 18.3393 5.42168 24.102 11.7737 25.87L15.3753 26.8523C15.5063 27.0488 15.7027 27.2452 15.8337 27.3762C17.5363 29.0788 19.5663 30.192 21.8582 30.7159V34.6449C21.8582 36.0856 20.6795 37.2643 19.2389 37.2643C18.715 37.2643 18.2566 37.7227 18.2566 38.2466V39.7527C18.2566 40.2766 17.7982 40.735 17.2743 40.735H15.9647C15.4408 40.735 14.9824 41.1934 14.9824 41.7172V47.2179C14.9824 47.7418 15.4408 48.2002 15.9647 48.2002H33.9728C34.4967 48.2002 34.9551 47.7418 34.9551 47.2179V41.6518C34.9551 41.1279 34.4967 40.6695 33.9728 40.6695H32.6632C32.1393 40.6695 31.6809 40.2111 31.6809 39.6872V38.1811C31.6809 37.6572 31.2225 37.1988 30.6986 37.1988C29.258 37.1988 28.0793 36.0201 28.0793 34.5795V30.6504C30.3712 30.1265 32.4012 29.0133 34.1038 27.3107C34.3003 27.1142 34.4312 26.9833 34.5622 26.7868L38.1638 25.8046C44.5158 24.102 48.9687 18.2739 48.9687 11.6599V9.62993C49.0342 8.64767 48.1174 7.73089 47.0697 7.73089ZM4.89781 11.7254V11.6599H10.333C10.464 13.9519 10.8569 18.0774 12.4285 21.941C8.04106 20.5658 4.89781 16.4403 4.89781 11.7254ZM28.5376 42.4376V44.5331C28.5376 44.8605 28.2757 45.0569 28.0138 45.0569H22.0547C21.7273 45.0569 21.5308 44.795 21.5308 44.5331V42.4376C21.5308 42.1102 21.7928 41.8482 22.0547 41.8482H28.0138C28.2757 41.8482 28.5376 42.1102 28.5376 42.4376ZM32.0738 14.4758L29.7818 16.6368C29.5854 16.8332 29.4544 17.1606 29.5199 17.4226L30.1093 20.5003C30.3057 21.6136 29.127 22.3994 28.1447 21.8755L25.3944 20.3694C25.1325 20.2384 24.805 20.2384 24.5431 20.3694L21.7928 21.8755C20.8105 22.3994 19.6318 21.5481 19.8282 20.5003L20.4176 17.4226C20.4831 17.1606 20.3521 16.8332 20.1557 16.6368L17.9292 14.4758C17.1434 13.69 17.5363 12.3803 18.6495 12.1838L21.7273 11.7909C21.9892 11.7254 22.2512 11.5945 22.3821 11.267L23.7573 8.45122C24.2157 7.46895 25.6563 7.46895 26.1147 8.45122L27.4899 11.267C27.6209 11.529 27.8828 11.7254 28.1447 11.7909L31.2225 12.1838C32.4012 12.3803 32.8596 13.7554 32.0738 14.4758ZM45.1052 11.7254C45.1052 16.4403 42.0274 20.5003 37.5745 21.941C39.1461 18.0774 39.539 13.9519 39.67 11.6599H45.1052V11.7254Z" fill="url(#paint0_linear_1213_19775)"/>
<defs>
<linearGradient id="paint0_linear_1213_19775" x1="44.6518" y1="45.5602" x2="0.971935" y2="-0.762802" gradientUnits="userSpaceOnUse">
<stop stop-color="#E28B27"/>
<stop offset="1" stop-color="#F18509" stop-opacity="0.34"/>
</linearGradient>
</defs>
</svg>
