<svg width="49" height="48" viewBox="0 0 49 48" fill="none" xmlns="http://www.w3.org/2000/svg">
<path d="M23.1876 27.5332H19.196C18.3876 27.5332 17.7812 28.19 17.7812 28.9479V31.3732C17.7812 32.1816 18.4381 32.7879 19.196 32.7879H23.1876C23.996 32.7879 24.6023 32.1311 24.6023 31.3732V28.9479C24.6023 28.19 23.996 27.5332 23.1876 27.5332Z" fill="url(#paint0_linear_1213_19789)"/>
<path d="M12.9805 27.5332H8.98896C8.18053 27.5332 7.57422 28.19 7.57422 28.9479V31.3732C7.57422 32.1816 8.23106 32.7879 8.98896 32.7879H12.9805C13.789 32.7879 14.3953 32.1311 14.3953 31.3732V28.9479C14.3953 28.19 13.789 27.5332 12.9805 27.5332Z" fill="url(#paint1_linear_1213_19789)"/>
<path d="M23.1876 18.5898H19.196C18.3876 18.5898 17.7812 19.2467 17.7812 20.0046V22.4298C17.7812 23.2383 18.4381 23.8446 19.196 23.8446H23.1876C23.996 23.8446 24.6023 23.1877 24.6023 22.4298V20.0046C24.6023 19.2467 23.996 18.5898 23.1876 18.5898Z" fill="url(#paint2_linear_1213_19789)"/>
<path d="M12.9805 18.5898H8.98896C8.18053 18.5898 7.57422 19.2467 7.57422 20.0046V22.4298C7.57422 23.2383 8.23106 23.8446 8.98896 23.8446H12.9805C13.789 23.8446 14.3953 23.1877 14.3953 22.4298V20.0046C14.3953 19.2467 13.789 18.5898 12.9805 18.5898Z" fill="url(#paint3_linear_1213_19789)"/>
<path d="M33.3946 18.5898H29.403C28.5946 18.5898 27.9883 19.2467 27.9883 20.0046V22.4298C27.9883 23.2383 28.6451 23.8446 29.403 23.8446H33.3946C34.203 23.8446 34.8093 23.1877 34.8093 22.4298V20.0046C34.8599 19.2467 34.203 18.5898 33.3946 18.5898Z" fill="url(#paint4_linear_1213_19789)"/>
<path d="M41.9316 26.5225V9.04039C41.9316 7.82776 41.4768 6.71618 40.7189 5.85723V5.75618H40.6684C39.7589 4.74565 38.4958 4.13934 37.0811 4.13934H33.5442V2.01723C33.5442 1.10776 32.8368 0.400391 31.9274 0.400391H29.5021C28.5926 0.400391 27.8853 1.10776 27.8853 2.01723V4.18986H14.6474V2.01723C14.6474 1.10776 13.94 0.400391 13.0305 0.400391H10.6053C9.69579 0.400391 8.98842 1.10776 8.98842 2.01723V4.18986H5.40105C3.98632 4.18986 2.67263 4.84671 1.81368 5.80671H1.71263V5.85723C0.954737 6.71618 0.5 7.82776 0.5 9.04039V35.0109C0.5 37.6888 2.67263 39.8614 5.35053 39.8614H27.0768C28.4916 44.3078 32.6347 47.4909 37.5358 47.4909C43.5989 47.4909 48.5 42.5899 48.5 36.5267C48.5 32.0804 45.7716 28.1899 41.9316 26.5225ZM26.5716 36.5772V36.6278H5.35053C4.44105 36.6278 3.73368 35.9204 3.73368 35.0109V15.1541H38.6474V25.6635C38.2937 25.613 37.8895 25.613 37.4853 25.613C31.4726 25.613 26.5716 30.5141 26.5716 36.5772ZM37.5358 44.2572C33.2916 44.2572 29.8053 40.7709 29.8053 36.5267C29.8053 32.2825 33.2916 28.7962 37.5358 28.7962C41.78 28.7962 45.2663 32.2825 45.2663 36.5772C45.2663 40.872 41.78 44.2572 37.5358 44.2572Z" fill="url(#paint5_linear_1213_19789)"/>
<path d="M40.5159 34.9102H39.1517V32.0807C39.1517 31.1712 38.4443 30.4639 37.5348 30.4639C36.6253 30.4639 35.918 31.1712 35.918 32.0807V36.5776C35.918 37.487 36.6253 38.1944 37.5348 38.1944H40.5159C41.4253 38.1944 42.1327 37.487 42.1327 36.5776C42.1327 35.6681 41.3748 34.9102 40.5159 34.9102Z" fill="url(#paint6_linear_1213_19789)"/>
<defs>
<linearGradient id="paint0_linear_1213_19789" x1="23.9884" y1="32.4989" x2="19.433" y2="26.2282" gradientUnits="userSpaceOnUse">
<stop stop-color="#E28B27"/>
<stop offset="1" stop-color="#F18509" stop-opacity="0.34"/>
</linearGradient>
<linearGradient id="paint1_linear_1213_19789" x1="13.7814" y1="32.4989" x2="9.22592" y2="26.2282" gradientUnits="userSpaceOnUse">
<stop stop-color="#E28B27"/>
<stop offset="1" stop-color="#F18509" stop-opacity="0.34"/>
</linearGradient>
<linearGradient id="paint2_linear_1213_19789" x1="23.9884" y1="23.5556" x2="19.433" y2="17.2848" gradientUnits="userSpaceOnUse">
<stop stop-color="#E28B27"/>
<stop offset="1" stop-color="#F18509" stop-opacity="0.34"/>
</linearGradient>
<linearGradient id="paint3_linear_1213_19789" x1="13.7814" y1="23.5556" x2="9.22593" y2="17.2848" gradientUnits="userSpaceOnUse">
<stop stop-color="#E28B27"/>
<stop offset="1" stop-color="#F18509" stop-opacity="0.34"/>
</linearGradient>
<linearGradient id="paint4_linear_1213_19789" x1="34.1979" y1="23.5556" x2="29.643" y2="17.2831" gradientUnits="userSpaceOnUse">
<stop stop-color="#E28B27"/>
<stop offset="1" stop-color="#F18509" stop-opacity="0.34"/>
</linearGradient>
<linearGradient id="paint5_linear_1213_19789" x1="44.18" y1="44.9009" x2="1.38344" y2="-1.35872" gradientUnits="userSpaceOnUse">
<stop stop-color="#E28B27"/>
<stop offset="1" stop-color="#F18509" stop-opacity="0.34"/>
</linearGradient>
<linearGradient id="paint6_linear_1213_19789" x1="41.5734" y1="37.7692" x2="34.6153" y2="31.8373" gradientUnits="userSpaceOnUse">
<stop stop-color="#E28B27"/>
<stop offset="1" stop-color="#F18509" stop-opacity="0.34"/>
</linearGradient>
</defs>
</svg>
