<svg width="49" height="49" viewBox="0 0 49 49" fill="none" xmlns="http://www.w3.org/2000/svg">
<path d="M47.5359 6.48407H42.9759L33.2159 0.964072C32.1759 0.404072 30.9759 0.244072 29.8559 0.644072L24.5759 2.56407C23.2159 3.04407 22.1759 4.32407 22.0159 5.76407C19.4559 4.64407 16.5759 4.48407 14.5759 6.32407C13.1359 7.52407 12.3359 9.20407 12.3359 10.9641C12.3359 12.7241 13.1359 14.4041 14.4959 15.6841L23.7759 23.9241C23.9359 24.0841 24.0959 24.1641 24.3359 24.1641C24.5759 24.1641 24.7359 24.0841 24.8959 23.9241L28.3359 20.8841H28.4159H39.6159C39.7759 20.8841 39.8559 20.8841 39.9359 20.8041L42.9759 19.2841H47.5359C48.0159 19.2841 48.3359 18.9641 48.3359 18.4841V7.28407C48.3359 6.80407 48.0159 6.48407 47.5359 6.48407ZM46.7359 17.6841H42.7359C42.5759 17.6841 42.4959 17.6841 42.4159 17.7641L39.3759 19.2841H29.5359H28.4959L22.3359 17.4441C21.6159 17.2041 21.1359 16.5641 21.1359 15.8441C21.1359 15.3641 21.3759 14.8841 21.7759 14.5641C22.1759 14.2441 22.6559 14.1641 23.1359 14.2441L28.1759 15.2841C28.2559 15.2841 28.2559 15.2841 28.3359 15.2841H33.1359C33.2959 15.2841 33.4559 15.2041 33.5359 15.1241L39.9359 11.1241C40.3359 10.8841 40.4159 10.4041 40.1759 10.0041C39.9359 9.60407 39.4559 9.52407 39.0559 9.76407L36.2559 11.5241C36.2559 11.3641 36.3359 11.1241 36.3359 10.8841C36.3359 9.12407 35.5359 7.44407 34.1759 6.16407C31.4559 3.76407 27.2159 4.80407 24.3359 7.04407C24.0959 6.88407 23.7759 6.64407 23.5359 6.48407V6.32407C23.5359 5.28407 24.1759 4.40407 25.1359 4.08407L30.4159 2.16407C31.0559 1.92407 31.7759 2.00407 32.4159 2.32407L42.3359 8.00407C42.4959 8.08407 42.5759 8.08407 42.7359 8.08407H46.7359V17.6841Z" fill="url(#paint0_linear_1213_19633)"/>
<path d="M48.2559 32.6436V32.5636C48.2559 32.4836 48.1759 32.4836 48.1759 32.4036C48.1759 32.4036 48.1759 32.3236 48.0959 32.3236L40.8959 25.9236C40.7359 25.7636 40.4959 25.6836 40.3359 25.6836H8.33594C8.17594 25.6836 7.93594 25.7636 7.77594 25.9236L0.575937 32.3236C0.575937 32.3236 0.575938 32.4036 0.495938 32.4036C0.415938 32.4836 0.415937 32.4836 0.415937 32.5636V32.6436C0.415937 32.7236 0.415938 32.8036 0.335938 32.8836C0.335938 32.8836 0.335938 32.8836 0.335938 32.9636V47.3636C0.335938 47.8436 0.655937 48.1636 1.13594 48.1636H47.5359C48.0159 48.1636 48.3359 47.8436 48.3359 47.3636V32.8836C48.3359 32.8836 48.3359 32.8836 48.3359 32.8036C48.3359 32.7236 48.3359 32.7236 48.2559 32.6436ZM20.3359 38.4836C20.3359 38.0836 20.4959 37.6836 20.8159 37.3636C21.1359 37.0436 21.5359 36.8836 22.0159 36.8836C22.4159 36.8836 22.8959 37.0436 23.2159 37.3636L23.7759 37.9236C24.0959 38.2436 24.5759 38.2436 24.8959 37.9236L25.4559 37.3636C26.0959 36.7236 27.2159 36.7236 27.8559 37.3636C28.1759 37.6836 28.3359 38.0836 28.3359 38.4836C28.3359 38.8836 28.1759 39.2836 27.8559 39.6036L24.3359 43.0436L20.8159 39.6036C20.4959 39.2836 20.3359 38.8836 20.3359 38.4836ZM8.65594 27.2836H40.0159L45.4559 32.0836H3.21594L8.65594 27.2836Z" fill="url(#paint1_linear_1213_19633)"/>
<path d="M33.1344 28.8838H15.5344C15.0544 28.8838 14.7344 29.2038 14.7344 29.6838C14.7344 30.1638 15.0544 30.4838 15.5344 30.4838H33.1344C33.6144 30.4838 33.9344 30.1638 33.9344 29.6838C33.9344 29.2038 33.6144 28.8838 33.1344 28.8838Z" fill="url(#paint2_linear_1213_19633)"/>
<defs>
<linearGradient id="paint0_linear_1213_19633" x1="45.0959" y1="22.8582" x2="25.6842" y2="-8.35448" gradientUnits="userSpaceOnUse">
<stop stop-color="#E28B27"/>
<stop offset="1" stop-color="#F18509" stop-opacity="0.34"/>
</linearGradient>
<linearGradient id="paint1_linear_1213_19633" x1="44.0159" y1="46.9272" x2="28.8699" y2="12.6322" gradientUnits="userSpaceOnUse">
<stop stop-color="#E28B27"/>
<stop offset="1" stop-color="#F18509" stop-opacity="0.34"/>
</linearGradient>
<linearGradient id="paint2_linear_1213_19633" x1="32.2064" y1="30.3958" x2="31.9786" y2="27.4967" gradientUnits="userSpaceOnUse">
<stop stop-color="#E28B27"/>
<stop offset="1" stop-color="#F18509" stop-opacity="0.34"/>
</linearGradient>
</defs>
</svg>
