<svg width="45" height="48" viewBox="0 0 45 48" fill="none" xmlns="http://www.w3.org/2000/svg">
<path d="M43.3185 10.2041L22.8816 0.2056C22.3016 -0.0743872 21.6416 -0.0743872 21.0821 0.225617L1.82473 10.2241C1.12464 10.584 0.704783 11.3239 0.744816 12.1038C0.804866 13.2636 2.48479 40.6995 21.9018 47.8784C22.3221 48.0315 22.8265 48.0442 23.2815 47.8784C42.6985 40.6995 44.3784 13.2636 44.4385 12.1038C44.4785 11.3039 44.0386 10.564 43.3185 10.2041ZM29.6365 24.9656C30.5934 25.5182 30.9214 26.7407 30.3688 27.6976C29.8108 28.6608 28.5845 28.9773 27.6368 28.4299L24.5806 26.6655V30.1933C24.5806 31.2986 23.6862 32.193 22.5809 32.193C21.4756 32.193 20.5812 31.2986 20.5812 30.1933V26.6666L17.527 28.4299C16.5734 28.9807 15.348 28.6553 14.795 27.6976C14.2423 26.7407 14.5704 25.5182 15.5273 24.9656L18.582 23.2021L15.5273 21.4387C14.5704 20.8861 14.2423 19.6636 14.795 18.7067C15.3476 17.7518 16.5701 17.4237 17.527 17.9744L20.5812 19.7377V16.211C20.5812 15.1057 21.4756 14.2113 22.5809 14.2113C23.6862 14.2113 24.5806 15.1057 24.5806 16.211V19.7388L27.6368 17.9744C28.5878 17.4237 29.8142 17.7479 30.3688 18.7067C30.9214 19.6636 30.5934 20.8861 29.6365 21.4387L26.5822 23.2021L29.6365 24.9656Z" fill="url(#paint0_linear_1213_19771)"/>
<defs>
<linearGradient id="paint0_linear_1213_19771" x1="40.5081" y1="45.358" x2="-3.22006" y2="3.14224" gradientUnits="userSpaceOnUse">
<stop stop-color="#E28B27"/>
<stop offset="1" stop-color="#F18509" stop-opacity="0.34"/>
</linearGradient>
</defs>
</svg>
