<svg width="48" height="44" viewBox="0 0 48 44" fill="none" xmlns="http://www.w3.org/2000/svg">
<path fill-rule="evenodd" clip-rule="evenodd" d="M47.9836 9.65753V11.5256C47.9836 11.8188 47.9891 12.1066 47.9999 12.427V13.5022L47.9836 13.9746L47.9828 13.9891C47.9777 14.0825 47.9722 14.1804 47.9619 14.2733C47.96 14.2883 47.9575 14.3065 47.9548 14.3262C47.9496 14.3635 47.9438 14.4061 47.9402 14.4416C47.9348 14.4471 47.9348 14.4525 47.9348 14.4579V14.4742V14.4797V14.4851C47.9319 14.5009 47.929 14.5169 47.9261 14.5329C47.9072 14.6376 47.8877 14.7453 47.8642 14.8489C47.7827 15.229 47.6632 15.5929 47.5275 15.9513C47.5112 15.9866 47.4936 16.0232 47.4759 16.0598C47.4583 16.0965 47.4406 16.1332 47.4243 16.1685C47.3537 16.3205 47.2723 16.4672 47.1908 16.6138C47.1863 16.6212 47.1814 16.6291 47.1764 16.6373C47.163 16.6588 47.1483 16.6825 47.1365 16.7061C47.0496 16.8581 46.9519 17.0102 46.8487 17.1568C46.8346 17.1756 46.8195 17.1949 46.8042 17.2146C46.7666 17.2628 46.7275 17.313 46.6966 17.3632C46.6939 17.3686 46.6899 17.3727 46.6858 17.3767C46.6817 17.3808 46.6776 17.3849 46.6749 17.3903C46.5826 17.5098 46.4849 17.6184 46.3817 17.727C46.2188 17.9008 46.0559 18.0637 45.8821 18.2157C45.8575 18.2365 45.833 18.258 45.8082 18.2796C45.7617 18.3202 45.7144 18.3614 45.6649 18.4004C45.6649 18.404 45.6601 18.4076 45.6552 18.4112C45.6528 18.413 45.6504 18.4148 45.6486 18.4166L45.6432 18.4221C45.6052 18.4492 45.5183 18.5144 45.4911 18.5361C45.3934 18.6067 45.2956 18.6719 45.1924 18.737C44.8829 18.938 44.5625 19.1063 44.2258 19.2638C44.1824 19.2801 44.1404 19.2963 44.0983 19.3126C44.0562 19.3289 44.0141 19.3452 43.9706 19.3615C43.786 19.4267 43.6014 19.4864 43.4113 19.5353C43.2324 19.5864 43.0487 19.6231 42.8692 19.6589L42.8357 19.6656C42.8085 19.671 42.78 19.6751 42.7515 19.6792C42.723 19.6833 42.6945 19.6873 42.6673 19.6928C42.6456 19.6955 42.6225 19.6982 42.5995 19.7009C42.5764 19.7036 42.5533 19.7063 42.5316 19.7091C42.2981 19.7308 42.07 19.7416 41.8365 19.7416H32.8873C32.4099 19.7416 31.9318 19.7386 31.4533 19.7356C30.4952 19.7296 29.5354 19.7235 28.5757 19.7416H28.5051C28.467 19.7416 28.429 19.7416 28.391 19.7471V17.9768V17.9442C28.391 17.9225 28.391 17.9008 28.3856 17.879C28.3313 17.4718 28.0326 17.1785 27.6091 17.1568H27.4081H20.8374C20.7982 17.1568 20.7587 17.1563 20.7192 17.1557C20.425 17.1518 20.1271 17.1477 19.8926 17.3632C19.6231 17.609 19.6294 17.9494 19.6355 18.2842C19.6364 18.334 19.6373 18.3837 19.6373 18.4329V19.7416C19.5993 19.7362 19.5613 19.7362 19.5233 19.7362H6.9521C6.87165 19.7362 6.79105 19.7365 6.71035 19.7368C6.30625 19.7383 5.89963 19.7398 5.49678 19.7036C5.4799 19.7008 5.46158 19.6995 5.44255 19.6981C5.42483 19.6967 5.4065 19.6954 5.38817 19.6928L5.19268 19.6602C4.99719 19.6222 4.80712 19.5787 4.61706 19.5299C4.44329 19.481 4.26952 19.4267 4.09575 19.367C4.03734 19.3498 3.9811 19.3282 3.92428 19.3065C3.89131 19.2939 3.85814 19.2812 3.82424 19.2692C3.81881 19.2665 3.81473 19.2651 3.81066 19.2638C3.80659 19.2624 3.80251 19.2611 3.79708 19.2583C3.90026 19.2964 4.0686 19.3344 3.75364 19.2366C3.42782 19.0846 3.11286 18.9108 2.80877 18.7153C2.75175 18.6773 2.69609 18.6366 2.64042 18.5958C2.58476 18.5551 2.5291 18.5144 2.47208 18.4764C2.49109 18.4872 2.50738 18.4981 2.5196 18.5062C2.53182 18.5144 2.53996 18.5198 2.54268 18.5198C2.53996 18.5171 2.5291 18.5103 2.50737 18.4967C2.48564 18.4832 2.45307 18.4628 2.40692 18.4329C2.39063 18.4221 2.37434 18.4112 2.36348 18.4004C2.28745 18.3406 2.21686 18.2809 2.14627 18.2157C1.97249 18.0582 1.80415 17.8953 1.64668 17.727C1.5435 17.6184 1.44575 17.5044 1.35344 17.3903C1.34549 17.3824 1.34045 17.3744 1.33406 17.3643C1.33172 17.3606 1.3292 17.3567 1.32629 17.3523L1.34258 17.3849C1.31729 17.3438 1.28833 17.3064 1.2589 17.2684C1.23777 17.2411 1.21639 17.2135 1.19596 17.184C1.07649 17.021 0.967885 16.8473 0.864709 16.6735C0.848418 16.6572 0.837557 16.6355 0.826697 16.6138C0.750672 16.478 0.680078 16.3423 0.609484 16.2011L0.609464 16.201C0.571458 16.125 0.533453 16.049 0.500877 15.973C0.498162 15.9676 0.496804 15.9635 0.495447 15.9594C0.494089 15.9553 0.492732 15.9513 0.490016 15.9458C0.484586 15.9404 0.484586 15.9404 0.484586 15.935C0.481463 15.9319 0.480136 15.9305 0.479572 15.9289C0.479156 15.9278 0.479156 15.9264 0.479156 15.9241C0.343398 15.5603 0.22393 15.1856 0.142475 14.8055C0.120199 14.7015 0.103 14.595 0.0856707 14.4877C0.0776536 14.4381 0.0696087 14.3883 0.0610205 14.3385C0.0610205 14.3303 0.0596629 14.3222 0.0583053 14.314C0.0569478 14.3059 0.0555902 14.2977 0.0555902 14.2896C0.0547187 14.2804 0.0538472 14.2713 0.0529785 14.2622C0.0430215 14.1581 0.0334332 14.0578 0.0284386 13.9529C0.0175781 13.79 0.0175781 13.6325 0.0175781 13.4696V13.4696V12.3347V9.70097C0.0610207 9.00046 0.337967 8.33253 0.859278 7.8438C1.39688 7.34421 2.07567 7.09442 2.80333 7.09442H3.30292H14.6523C14.6512 6.95297 14.6501 6.81146 14.649 6.66992C14.6387 5.3878 14.6284 4.10259 14.6577 2.82618C14.6957 1.26768 15.923 0.0349954 17.4815 0.00241348C17.5682 -0.00119862 17.6573 -5.3852e-06 17.7472 0.00119862C17.7924 0.00180469 17.8379 0.00241348 17.8833 0.00241348H28.2824H30.4111C31.1985 0.0078438 31.9533 0.2685 32.5126 0.833253C33.11 1.43059 33.3435 2.21256 33.3435 3.03796V7.09442H44.9861H45.2739C46.7184 7.11614 47.8805 8.23479 47.9836 9.65753ZM30.65 2.85876C30.6446 2.85876 30.6446 2.85333 30.6446 2.8479V2.80989C30.6528 2.81532 30.6609 2.82211 30.669 2.82889C30.6772 2.83568 30.6853 2.84247 30.6935 2.8479C30.6772 2.83704 30.6555 2.81532 30.6392 2.7936C30.6392 2.78817 30.6378 2.7841 30.6365 2.78002C30.6351 2.77595 30.6337 2.77188 30.6337 2.76645C30.6379 2.76852 30.6413 2.7706 30.6441 2.77237C30.6488 2.77524 30.6521 2.77731 30.6555 2.77731C30.6491 2.77095 30.6427 2.76645 30.6375 2.76272C30.6337 2.76009 30.6306 2.75784 30.6283 2.75559V2.75016C30.6392 2.75559 30.6555 2.75559 30.6609 2.75559C30.6575 2.75559 30.6521 2.75351 30.6446 2.75065C30.64 2.74888 30.6345 2.7468 30.6283 2.74473V2.71758C30.6989 2.71215 30.6772 2.70128 30.6283 2.69042C30.6283 2.67956 30.6229 2.67413 30.6229 2.67413C30.6175 2.67413 30.6175 2.67956 30.6175 2.69042C30.612 2.69042 30.608 2.68907 30.6039 2.68771C30.5998 2.68635 30.5957 2.68499 30.5903 2.68499C30.5794 2.68499 30.5686 2.68364 30.5577 2.68228C30.5469 2.68092 30.536 2.67956 30.5251 2.67956C30.498 2.65784 30.4817 2.64698 30.4817 2.64698L30.4817 2.64699C30.4871 2.65243 30.498 2.66328 30.5197 2.67956H30.498C30.4817 2.6687 30.4763 2.6687 30.4926 2.67956C30.4654 2.68499 30.4545 2.69042 30.4926 2.71215C30.4959 2.7155 30.4993 2.71678 30.5039 2.71856C30.5068 2.71965 30.5101 2.72093 30.5143 2.72301C30.4059 2.71939 30.2999 2.72059 30.1931 2.72179C30.1394 2.7224 30.0855 2.72301 30.031 2.72301H17.6444H17.5141C17.5358 2.70672 17.5412 2.69585 17.5358 2.69042C17.5521 2.67956 17.5195 2.67956 17.4761 2.68499L17.5087 2.65241C17.5068 2.65422 17.5044 2.65603 17.5012 2.65845C17.4948 2.66327 17.4851 2.67051 17.4706 2.68499C17.4598 2.68771 17.4503 2.68907 17.4408 2.69042C17.4313 2.69178 17.4218 2.69314 17.4109 2.69585V2.70128C17.4019 2.70128 17.3946 2.70293 17.388 2.70441C17.3827 2.70562 17.3778 2.70672 17.3729 2.70672C17.3729 2.67413 17.362 2.68499 17.3566 2.71215C17.324 2.71758 17.3132 2.72844 17.3512 2.72844C17.3485 2.73387 17.3471 2.74065 17.3457 2.74744C17.3444 2.75423 17.343 2.76102 17.3403 2.76645C17.3394 2.77018 17.3385 2.77374 17.3375 2.7772C17.3332 2.79392 17.3295 2.80819 17.3295 2.82618C17.286 2.87506 17.3023 2.86962 17.3295 2.83704C17.324 2.87506 17.324 2.90764 17.3349 2.89135C17.3403 2.89678 17.3512 2.89135 17.3675 2.86963V3.152V7.09985H30.6337C30.6446 5.68796 30.6555 4.27608 30.6283 2.86419C30.6337 2.87506 30.6446 2.88592 30.65 2.88049C30.658 2.90027 30.6572 2.89699 30.6541 2.88324C30.653 2.87812 30.6515 2.87156 30.65 2.86419V2.85876ZM47.9946 19.9263V38.7695V40.6864C47.9891 42.2558 46.7945 43.5047 45.2088 43.5102H43.8024H3.77543C3.65757 43.5102 3.54032 43.5108 3.42327 43.5114C3.18977 43.5126 2.95706 43.5138 2.72195 43.5102C1.28291 43.4885 0.115394 42.3807 0.00678786 40.9471C-0.0013576 40.833 -0.000339395 40.719 0.000678811 40.6049C0.00101822 40.5669 0.00135762 40.5289 0.00135762 40.4909V19.9534C0.256583 20.2032 0.528099 20.4367 0.815906 20.6539C1.07656 20.8494 1.34808 21.0286 1.63046 21.197C2.23322 21.5499 2.874 21.8377 3.53107 22.0495C4.87785 22.4814 6.29215 22.4685 7.69244 22.4557C7.92952 22.4535 8.16619 22.4514 8.40207 22.4514H14.9999C15.4921 22.4514 15.9848 22.4538 16.4778 22.4562C17.4643 22.461 18.4516 22.4659 19.4365 22.4514H19.5071C19.5397 22.4514 19.5777 22.4514 19.6103 22.4459V22.4462C19.6103 22.7285 19.6103 23.0162 19.6157 23.2985C19.6211 23.7981 19.9632 24.1293 20.4574 24.1402C20.6782 24.1438 20.8991 24.1426 21.1199 24.1414C21.2303 24.1408 21.3407 24.1402 21.4511 24.1402H25.2415C25.5022 24.1402 25.7634 24.1444 26.0247 24.1486C26.5472 24.1571 27.0697 24.1655 27.5874 24.1402C28.0273 24.1185 28.3531 23.7927 28.3748 23.3528C28.3784 23.2987 28.3772 23.247 28.376 23.1945C28.3754 23.168 28.3748 23.1412 28.3748 23.1139V22.4405C28.4128 22.4459 28.4508 22.4459 28.4888 22.4459H28.4888H38.8933C39.2152 22.4459 39.5386 22.4501 39.8627 22.4543C41.0206 22.4691 42.1874 22.4841 43.3245 22.3102C44.4051 22.1418 45.4369 21.7563 46.3655 21.1915C46.6478 21.0178 46.9194 20.8331 47.18 20.6322C47.4624 20.415 47.7393 20.1761 47.9946 19.9263Z" fill="url(#paint0_linear_1213_19619)"/>
<defs>
<linearGradient id="paint0_linear_1213_19619" x1="43.6799" y1="41.1194" x2="4.49814" y2="-4.71547" gradientUnits="userSpaceOnUse">
<stop stop-color="#E28B27"/>
<stop offset="1" stop-color="#F18509" stop-opacity="0.34"/>
</linearGradient>
</defs>
</svg>
