<svg width="15" height="17" viewBox="0 0 15 17" fill="none" xmlns="http://www.w3.org/2000/svg">
<path d="M13.1875 15.2563H1.52083C1.29982 15.2563 1.08786 15.3441 0.931578 15.5004C0.775298 15.6567 0.6875 15.8687 0.6875 16.0897C0.6875 16.3107 0.775298 16.5227 0.931578 16.6789C1.08786 16.8352 1.29982 16.923 1.52083 16.923H13.1875C13.4085 16.923 13.6205 16.8352 13.7768 16.6789C13.933 16.5227 14.0208 16.3107 14.0208 16.0897C14.0208 15.8687 13.933 15.6567 13.7768 15.5004C13.6205 15.3441 13.4085 15.2563 13.1875 15.2563ZM6.7625 13.348C6.84175 13.4239 6.93521 13.4834 7.0375 13.523C7.13725 13.5671 7.24511 13.5899 7.35417 13.5899C7.46323 13.5899 7.57108 13.5671 7.67083 13.523C7.77313 13.4834 7.86658 13.4239 7.94583 13.348L11.2792 10.0147C11.4361 9.85776 11.5242 9.64493 11.5242 9.42301C11.5242 9.2011 11.4361 8.98827 11.2792 8.83135C11.1222 8.67443 10.9094 8.58627 10.6875 8.58627C10.4656 8.58627 10.2528 8.67443 10.0958 8.83135L8.1875 10.748V1.08968C8.1875 0.868667 8.0997 0.656706 7.94342 0.500425C7.78714 0.344145 7.57518 0.256348 7.35417 0.256348C7.13315 0.256348 6.92119 0.344145 6.76491 0.500425C6.60863 0.656706 6.52083 0.868667 6.52083 1.08968V10.748L4.6125 8.83135C4.5348 8.75365 4.44256 8.69202 4.34104 8.64996C4.23952 8.60791 4.13072 8.58627 4.02083 8.58627C3.91095 8.58627 3.80214 8.60791 3.70063 8.64996C3.59911 8.69202 3.50687 8.75365 3.42917 8.83135C3.35147 8.90905 3.28983 9.00129 3.24778 9.10281C3.20573 9.20433 3.18409 9.31313 3.18409 9.42301C3.18409 9.5329 3.20573 9.6417 3.24778 9.74322C3.28983 9.84474 3.35147 9.93698 3.42917 10.0147L6.7625 13.348Z" fill="#0A1121"/>
</svg>
