<svg width="16" height="17" viewBox="0 0 16 17" fill="none" xmlns="http://www.w3.org/2000/svg">
<path fill-rule="evenodd" clip-rule="evenodd" d="M10.1738 0.266586C10.1379 0.260179 10.1009 0.256836 10.0632 0.256836C10.0255 0.256836 9.98854 0.260179 9.95265 0.266586H4.65047C2.5892 0.266586 0.917969 1.9375 0.917969 3.99909V13.0399C0.917969 15.1808 2.64801 16.8108 4.8263 16.8108H11.3955C13.4525 16.8108 15.128 15.1067 15.128 13.0399V5.28825C15.128 5.12691 15.0656 4.97181 14.9538 4.85542L10.733 0.458752C10.6151 0.335984 10.4523 0.266586 10.2821 0.266586H10.1738ZM9.43822 1.51592L4.65047 1.51659C3.2795 1.51659 2.16797 2.62791 2.16797 3.99909V13.0399C2.16797 14.4732 3.32226 15.5608 4.8263 15.5608H11.3955C12.7574 15.5608 13.878 14.4211 13.878 13.0399L13.8775 6.07607L13.1478 6.07856C12.8698 6.07822 12.5536 6.07764 12.2019 6.07683C10.7273 6.07372 9.52383 4.91791 9.44259 3.46299L9.43822 3.306V1.51592ZM13.1935 4.8267L12.2046 4.82684C11.3667 4.82507 10.6882 4.14472 10.6882 3.306V2.21712L13.1935 4.8267ZM5.98503 7.46606C6.20692 7.24417 6.55414 7.224 6.79881 7.40555L6.86891 7.46606L7.87122 8.46837L8.87353 7.46606C9.1176 7.22198 9.51333 7.22198 9.75741 7.46606C9.9793 7.68795 9.99947 8.03517 9.81793 8.27985L9.75741 8.34994L8.7551 9.35225L9.75724 10.3544C10.0013 10.5985 10.0013 10.9942 9.75724 11.2383C9.53535 11.4602 9.18814 11.4803 8.94346 11.2988L8.87336 11.2383L7.87122 10.2361L6.86908 11.2383C6.625 11.4824 6.22927 11.4824 5.98519 11.2383C5.7633 11.0164 5.74313 10.6692 5.92468 10.4245L5.98519 10.3544L6.98734 9.35225L5.98503 8.34994C5.74095 8.10587 5.74095 7.71014 5.98503 7.46606Z" fill="white"/>
</svg>
