<svg width="100" height="100" viewBox="0 0 100 100" fill="none" xmlns="http://www.w3.org/2000/svg">
<g clip-path="url(#clip0_463_5931)">
<path fill-rule="evenodd" clip-rule="evenodd" d="M91.8328 42.0015C94.8806 59.2867 84.0181 75.8072 67.2867 80.0785C66.7975 80.1285 66.3093 80.1684 65.8223 80.1983C79.2922 74.8756 87.6241 60.6582 85.0111 45.8392C82.0249 28.9038 65.8753 17.5958 48.9399 20.5819C41.1347 21.9582 34.5248 26.1306 29.9586 31.8873C30.1288 31.4278 30.3081 30.9723 30.4965 30.5211C35.3024 22.5936 43.3722 16.7001 53.2191 14.9639C71.3482 11.7672 88.6361 23.8724 91.8328 42.0015ZM29.5313 33.1087C34.0498 26.9249 40.8714 22.4108 49.0094 20.9758C65.7272 18.028 81.6693 29.1908 84.6172 45.9087C87.2702 60.9546 78.4937 75.3723 64.5247 80.2544C63.8265 80.2719 63.1311 80.269 62.4394 80.246C73.4589 74.7503 80.043 62.491 77.7958 49.7461C75.0584 34.222 60.2546 23.8563 44.7305 26.5936C38.445 27.7019 33.005 30.7884 28.9381 35.0999C29.1169 34.4292 29.3148 33.7652 29.5313 33.1087ZM58.5564 80.3083C59.3049 80.4145 60.0593 80.4975 60.8187 80.5567C60.3496 80.7582 59.8732 80.9476 59.3898 81.1244C58.657 81.1337 57.9279 81.1188 57.2033 81.0801C57.6634 80.8358 58.1146 80.5783 58.5564 80.3083ZM57.934 80.2145C57.0092 80.0667 56.094 79.8836 55.19 79.6662C54.7424 80.0345 54.2802 80.3868 53.804 80.7221C54.6698 80.8589 55.5447 80.9617 56.4269 81.0296C56.9402 80.774 57.4427 80.502 57.934 80.2145ZM51.484 78.5625C52.5382 78.9388 53.6124 79.2673 54.7037 79.5457C54.2307 79.9246 53.7415 80.2856 53.2371 80.6275C52.2078 80.4466 51.1919 80.2177 50.1922 79.9429C50.644 79.5021 51.075 79.0413 51.484 78.5625ZM51.082 78.4163C49.7703 77.9306 48.4906 77.3704 47.2488 76.7402C46.9301 77.3679 46.5754 77.9762 46.1871 78.562C47.3453 79.0458 48.5335 79.4653 49.7465 79.8171C50.2142 79.3709 50.6598 78.9034 51.082 78.4163ZM40.6782 72.461C42.6035 74.0331 44.6867 75.4066 46.8931 76.5571C46.5699 77.194 46.2089 77.8103 45.8125 78.4028C43.8989 77.5759 42.0698 76.5728 40.3492 75.4103C40.5509 74.4509 40.6631 73.4641 40.6782 72.461ZM40.2795 72.1307C35.7867 68.3547 32.1863 63.4807 29.9313 57.8258C28.9918 57.51 28.0159 57.2845 27.0158 57.1581C29.2066 64.6734 33.8953 70.9303 39.991 75.1649C40.1871 74.1781 40.2862 73.1626 40.2795 72.1307ZM40.2666 71.595C36.0356 67.9676 32.6264 63.3451 30.4355 58.0054C35.2893 59.8307 39.0811 64.0995 40.0469 69.5765C40.1661 70.253 40.2386 70.927 40.2666 71.595ZM40.6772 71.9419C40.6624 71.1376 40.5849 70.3241 40.4408 69.507C39.4271 63.7582 35.3798 59.3062 30.2354 57.5072C29.4188 55.4284 28.7855 53.2439 28.3586 50.9697C37.8742 49.5089 46.8597 55.915 48.5399 65.4441C49.2094 69.2409 48.6195 72.9685 47.0702 76.1983C44.7935 75.0104 42.6496 73.5826 40.6772 71.9419ZM29.7432 57.3443C28.9742 55.3326 28.3744 53.2248 27.9638 51.0347L27.9618 51.0351C27.2514 51.1604 26.5583 51.3262 25.8845 51.5299C25.9621 52.2108 26.0609 52.8936 26.1815 53.5776C26.3713 54.6538 26.6107 55.7089 26.8971 56.7408C27.8709 56.853 28.8232 57.0566 29.7432 57.3443ZM26.4703 56.6976C26.1988 55.7014 25.9704 54.6839 25.7876 53.647C25.6701 52.9808 25.573 52.3156 25.496 51.6523C24.8541 51.8625 24.2305 52.1073 23.627 52.3841C23.6802 53.7736 23.8283 55.1758 24.0766 56.5836L24.0926 56.6737C24.8943 56.6203 25.6887 56.6295 26.4703 56.6976ZM24.1663 57.0698C24.6482 59.5715 25.4222 61.9454 26.4466 64.162C29.8942 65.9627 32.4975 69.2874 33.2251 73.4139C33.2367 73.4795 33.2478 73.545 33.2583 73.6105C35.0421 75.29 37.0201 76.7514 39.1464 77.9627C39.4609 77.1973 39.7139 76.4035 39.9004 75.5885C33.6211 71.2721 28.7986 64.8436 26.5855 57.11C25.7911 57.0328 24.9826 57.018 24.1663 57.0698ZM32.7649 73.1356C32.0174 69.4887 29.7479 66.5205 26.7408 64.7804C28.2807 67.925 30.3301 70.7391 32.7649 73.1356ZM32.8841 73.8072C30.1107 71.173 27.8065 68.0158 26.1415 64.4548C25.1243 63.9373 24.0332 63.5559 22.8959 63.33C24.7344 69.0637 28.3108 73.8866 32.9186 77.3039C33.0674 76.1678 33.062 74.9935 32.8841 73.8072ZM23.7649 57.1006C24.2205 59.4843 24.9378 61.7537 25.8817 63.8842C24.8954 63.4283 23.8477 63.094 22.761 62.8971C22.436 61.8244 22.1715 60.7208 21.972 59.5893C21.845 58.8692 21.7466 58.1507 21.676 57.435C21.9392 57.374 22.2055 57.3198 22.4747 57.2723C22.9061 57.1962 23.3364 57.1392 23.7649 57.1006ZM21.578 59.6588C21.7687 60.7402 22.018 61.7967 22.3219 62.8254C21.5262 62.7094 20.7114 62.6668 19.8863 62.7036L19.867 62.5954C19.6021 61.093 19.4743 59.5982 19.4746 58.1237C20.0584 57.8909 20.662 57.6925 21.2836 57.5312C21.3548 58.2382 21.4526 58.9477 21.578 59.6588ZM32.1654 80.234C26.0385 76.6603 21.4312 70.5717 19.9613 63.1009C20.8059 63.0671 21.6391 63.119 22.451 63.25C24.318 69.2254 28.0412 74.2386 32.8517 77.7514C32.7079 78.6068 32.4765 79.4382 32.1654 80.234ZM32.0123 80.6077C25.7504 76.9732 21.0431 70.7559 19.5581 63.1235C19.1292 63.1545 18.6977 63.2076 18.265 63.2839C18.0016 63.3304 17.7417 63.3847 17.4853 63.4466C17.5433 64.1618 17.6353 64.8806 17.7624 65.6014C18.0316 67.1284 18.4461 68.5933 18.989 69.9845C21.9054 71.3822 24.1276 74.1185 24.7321 77.5463C24.7906 77.8784 24.8327 78.2096 24.8589 78.539C26.6656 80.1923 28.7287 81.551 30.9659 82.5577C31.3702 81.9409 31.7208 81.2884 32.0123 80.6077ZM24.4142 78.1212C24.3932 77.9531 24.3679 77.7845 24.3381 77.6158C23.7851 74.4793 21.8232 71.945 19.218 70.5491C20.4389 73.4465 22.2235 76.0074 24.4142 78.1212ZM18.675 70.279C19.9776 73.5501 21.9803 76.4152 24.4712 78.7258C24.5396 79.7981 24.4331 80.8496 24.174 81.8488C20.053 79.0157 16.9718 74.6752 15.825 69.4538C16.8215 69.5859 17.7809 69.8675 18.675 70.279ZM18.4734 69.7544C17.9909 68.4517 17.6183 67.0876 17.3685 65.6709C17.2433 64.9609 17.1516 64.2528 17.0923 63.5482C16.4948 63.7129 15.9179 63.9192 15.3641 64.1635C15.3003 65.622 15.3935 67.1099 15.6575 68.6072C15.683 68.752 15.71 68.8961 15.7385 69.0396C16.6888 69.1525 17.6079 69.3959 18.4734 69.7544ZM15.3229 68.9988C15.3023 68.8918 15.2825 68.7844 15.2635 68.6766C15.0068 67.2205 14.9085 65.7731 14.9564 64.3521C14.4893 64.5785 14.0399 64.8324 13.6099 65.1113C13.3596 66.387 13.2477 67.7036 13.2881 69.0415C13.9749 68.9594 14.6557 68.9469 15.3229 68.9988ZM15.4057 69.4072C14.7179 69.3457 14.0146 69.3554 13.3047 69.4424C13.3426 70.1615 13.4246 70.8861 13.5528 71.6132C14.5681 77.3711 18.2506 81.9887 23.1055 84.4195C23.506 83.7415 23.8274 83.0151 24.0594 82.2549C19.7663 79.3443 16.5617 74.8377 15.4057 69.4072ZM24.4067 82.4853C24.1717 83.2243 23.8554 83.9318 23.4663 84.5951C24.7912 85.2216 26.1987 85.6871 27.6595 85.971C28.1814 85.6052 28.6725 85.2016 29.1294 84.7649C27.459 84.2054 25.8725 83.4369 24.4067 82.4853ZM22.8944 84.7612C20.7365 83.6753 18.8061 82.1665 17.2294 80.3229C17.3513 80.6868 17.4478 81.0642 17.5164 81.4535C17.7446 82.7474 17.639 84.0229 17.2615 85.1918C18.4523 85.9123 19.7437 86.4711 21.101 86.8438C21.7933 86.2339 22.3965 85.5321 22.8944 84.7612ZM9.87423 75.4197C10.7692 79.6807 13.3445 83.187 16.7787 85.3633C16.5188 86.0652 16.1542 86.7221 15.7004 87.3115C11.8369 85.7319 8.8439 82.2644 8.06555 77.8502C7.93761 77.1246 7.87465 76.4027 7.87248 75.6902C8.09944 75.6274 8.33146 75.5748 8.56811 75.5331C9.00698 75.4557 9.44363 75.4188 9.87423 75.4197ZM10.2859 75.4321C11.1686 79.507 13.6313 82.8655 16.9109 84.9732C17.2443 83.8907 17.3327 82.715 17.1225 81.523C16.5165 78.0861 13.6245 75.6265 10.2859 75.4321ZM14.921 76.8986C13.624 75.7865 11.9705 75.1059 10.2038 75.0273C10.1924 74.9665 10.1813 74.9056 10.1705 74.8445C9.90627 73.3461 9.87177 71.8603 10.0417 70.4232C10.8847 70.0016 11.8021 69.6932 12.7778 69.5211C12.8209 69.5135 12.864 69.5062 12.9071 69.4992C12.9467 70.2226 13.03 70.9514 13.1589 71.6827C13.4882 73.55 14.0918 75.3 14.921 76.8986ZM17.1258 85.577C16.8679 86.2521 16.5176 86.8866 16.0878 87.4625C17.0692 87.8263 18.1022 88.0698 19.166 88.1783C19.7231 87.8848 20.2463 87.5412 20.7307 87.1545C19.4611 86.7815 18.2503 86.2492 17.1258 85.577ZM7.67163 77.9197C8.46714 82.4312 11.5047 85.9843 15.4364 87.6351C14.8725 88.2881 14.1928 88.8449 13.4218 89.2707C12.2089 89.1382 11.0473 88.7843 9.98702 88.2441C10.3524 87.3625 10.4791 86.3699 10.3011 85.3604C9.82679 82.6704 7.35978 80.8322 4.68582 81.0963C4.68494 81.0914 4.68406 81.0864 4.68318 81.0815C4.46862 79.8646 4.48433 78.6604 4.69901 77.5135C5.46945 76.7622 6.40989 76.1729 7.47336 75.8129C7.48204 76.5084 7.54691 77.2124 7.67163 77.9197ZM4.76404 81.4907C7.21671 81.2688 9.47176 82.9604 9.90719 85.4299C10.069 86.3474 9.95797 87.25 9.63242 88.0544C7.22557 86.7039 5.39477 84.3704 4.76404 81.4907ZM4.36616 81.5435C5.01788 84.5655 6.93929 87.0126 9.4664 88.4199C9.15784 89.03 8.72092 89.5708 8.18439 90.0011C5.38735 89.3522 3.10832 87.0937 2.57825 84.0875C2.47251 83.4878 2.44234 82.8923 2.48092 82.3107C3.02805 81.935 3.66247 81.6675 4.35872 81.5448C4.3612 81.5443 4.36368 81.5439 4.36616 81.5435ZM4.28926 81.1508C4.10302 80.0946 4.08358 79.0475 4.21205 78.0366C3.31803 79.0948 2.7245 80.3983 2.53243 81.8027C3.05873 81.4889 3.64993 81.2636 4.28926 81.1508ZM2.09671 82.0936C2.26316 80.2681 3.07191 78.5837 4.32962 77.3165C4.83617 74.7819 6.27854 72.526 8.34108 70.9994C8.79887 69.8152 9.42727 68.7067 10.2015 67.7091C11.0253 64.9887 12.5818 62.544 14.6802 60.6479C15.0964 59.7854 15.5796 58.9578 16.1243 58.1729C16.7059 56.527 17.4914 54.9659 18.4557 53.5256C19.0605 51.8924 19.8447 50.3363 20.7885 48.8855C21.412 47.2603 22.1961 45.7058 23.1248 44.245C23.7631 42.6281 24.5465 41.0763 25.4616 39.6086C26.1125 37.9974 26.8958 36.4467 27.8004 34.9724C28.4614 33.3673 29.244 31.8185 30.1388 30.3396C34.7538 19.3113 44.7113 10.7881 57.359 8.55796C77.117 5.0741 95.9582 18.2669 99.442 38.0248C102.926 57.7827 89.7331 76.6239 69.9752 80.1078C69.1002 80.2621 68.227 80.3837 67.3569 80.4734C66.5397 80.6813 65.7086 80.8603 64.8647 81.0091C63.9876 81.1637 63.1124 81.283 62.2407 81.3679C61.4264 81.5803 60.5971 81.7617 59.7538 81.9103C58.874 82.0655 57.9963 82.182 57.1224 82.2612C56.312 82.4789 55.4852 82.6628 54.6432 82.8113C53.7611 82.9669 52.8813 83.0801 52.0059 83.1525C51.1991 83.3767 50.3741 83.5642 49.5324 83.7126C48.6471 83.8687 47.7643 83.9779 46.8867 84.0421C46.0848 84.2741 45.2626 84.4656 44.4218 84.6139C43.5318 84.7708 42.6446 84.8751 41.7635 84.929C40.9683 85.1705 40.15 85.3669 39.311 85.5148C38.4162 85.6726 37.5246 85.7705 36.6405 85.8115C35.8528 86.0653 35.0384 86.2683 34.2004 86.4161C33.0664 86.6161 31.9385 86.7061 30.8275 86.694C29.8713 87.0704 28.8634 87.3572 27.8121 87.5426C26.9 87.7034 25.9925 87.7813 25.0973 87.7817C24.3353 88.0731 23.5346 88.2966 22.7013 88.4435C21.5325 88.6496 20.3727 88.6923 19.2453 88.588C18.3448 89.049 17.3613 89.3852 16.313 89.57C15.3626 89.7376 14.4196 89.7701 13.5037 89.6814C12.8008 90.0547 12.0282 90.3256 11.2021 90.4713C10.204 90.6473 9.21677 90.6247 8.28101 90.4318C7.65425 90.8971 6.91259 91.2275 6.09157 91.3723C3.269 91.8699 0.577403 89.9853 0.0797085 87.1627C-0.272979 85.1625 0.5707 83.2281 2.09671 82.0936ZM2.06654 82.63C0.829471 83.6961 0.169458 85.3682 0.473632 87.0932C0.932964 89.6982 3.4171 91.4377 6.02211 90.9783C6.65954 90.8659 7.24513 90.6323 7.75937 90.3053C4.96509 89.5242 2.72181 87.2052 2.18433 84.157C2.09374 83.6432 2.05577 83.1324 2.06654 82.63ZM8.68496 90.0991C9.47541 90.2253 10.3 90.2242 11.1327 90.0774C11.7116 89.9753 12.2628 89.8083 12.7802 89.5853C11.74 89.4094 10.743 89.0765 9.81963 88.6078C9.53508 89.1681 9.15052 89.6743 8.68496 90.0991ZM15.8278 87.7921C15.338 88.3797 14.761 88.8969 14.1119 89.3218C14.8119 89.3491 15.5255 89.3027 16.2435 89.1761C17.0378 89.036 17.7934 88.8056 18.5018 88.4973C17.5802 88.3576 16.6844 88.1194 15.8278 87.7921ZM7.47498 75.3912C6.4929 75.7045 5.60716 76.2021 4.85018 76.8375C5.37336 74.8299 6.51337 73.0342 8.09102 71.7064C7.71347 72.881 7.5006 74.12 7.47498 75.3912ZM8.49865 75.1392C8.28824 75.1763 8.08131 75.2215 7.87812 75.2745C7.9203 73.8769 8.19585 72.521 8.67271 71.2526C8.97359 71.0353 9.28784 70.834 9.61442 70.6502C9.47524 72.0396 9.52214 73.4711 9.77656 74.9139C9.7828 74.9493 9.78915 74.9846 9.79561 75.0199C9.36762 75.0234 8.93417 75.0624 8.49865 75.1392ZM21.5652 86.9634C22.2135 86.3616 22.7815 85.6803 23.2561 84.9382C24.5038 85.5318 25.8236 85.9857 27.1919 86.2832C26.5141 86.7142 25.789 87.0834 25.0232 87.3815C23.8419 87.3762 22.683 87.2324 21.5652 86.9634ZM19.8857 88.2307C20.3513 87.9489 20.791 87.6322 21.2021 87.2849C22.0985 87.5178 23.0218 87.6719 23.9629 87.7406C23.5299 87.8661 23.0859 87.9696 22.6318 88.0496C21.7065 88.2128 20.787 88.2703 19.8857 88.2307ZM8.94622 70.584C9.18106 70.4348 9.42277 70.2945 9.67094 70.1638C9.73169 69.7046 9.8128 69.2505 9.91346 68.8025C9.54455 69.3684 9.22079 69.9642 8.94622 70.584ZM10.1056 69.9479C10.2108 69.2498 10.3643 68.5644 10.5631 67.8959C11.2979 66.9605 12.1658 66.1274 13.1445 65.4282C12.9375 66.6231 12.849 67.8511 12.8895 69.0969C12.8292 69.1064 12.7688 69.1166 12.7084 69.1272C11.7866 69.2897 10.9148 69.5693 10.1056 69.9479ZM24.5251 82.0849C24.7867 81.1301 24.9138 80.1277 24.8883 79.1035C26.6362 80.6485 28.609 81.928 30.7379 82.8937C30.3508 83.4448 29.9196 83.9651 29.4485 84.4488C27.7017 83.883 26.0462 83.085 24.5251 82.0849ZM19.4731 62.6648L19.4843 62.7278C19.0567 62.7602 18.6267 62.814 18.1955 62.89C17.946 62.934 17.6995 62.9849 17.456 63.0423C17.3704 61.6946 17.4049 60.3612 17.5511 59.0539C18.041 58.7724 18.5495 58.517 19.0751 58.2897C19.084 59.7332 19.214 61.1955 19.4731 62.6648ZM17.1218 59.3101C16.9977 60.5679 16.9753 61.8485 17.0616 63.1419C16.4848 63.2972 15.9264 63.49 15.3886 63.7172C15.4695 62.4881 15.6619 61.2815 15.9571 60.1095C16.3313 59.826 16.7198 59.5591 17.1218 59.3101ZM15.4499 60.5111C15.2007 61.6155 15.0408 62.7482 14.9766 63.8997C14.5451 64.1 14.1278 64.3228 13.7258 64.5664C14.0183 63.2905 14.4499 62.0592 15.0065 60.8924C15.1517 60.7626 15.2995 60.6355 15.4499 60.5111ZM14.2443 61.6234C13.8149 62.6653 13.4807 63.7513 13.2506 64.8687C12.387 65.4451 11.6013 66.1201 10.9069 66.8748C11.6467 64.9113 12.7864 63.1219 14.2443 61.6234ZM26.1017 87.3479C26.6779 87.0694 27.2281 86.7504 27.7493 86.3953C28.4096 86.5172 29.0803 86.603 29.7588 86.6507C29.1077 86.8594 28.4348 87.0266 27.7427 87.1487C27.1934 87.2455 26.6458 87.3115 26.1017 87.3479ZM30.7536 86.2929C29.8924 86.2797 29.0417 86.2036 28.2071 86.0686C28.686 85.7107 29.1379 85.3213 29.5602 84.904C30.46 85.1836 31.3828 85.4031 32.323 85.5583C31.818 85.8312 31.2944 86.0768 30.7536 86.2929ZM32.8845 85.2392C31.8592 85.096 30.8536 84.8751 29.8751 84.5818C30.325 84.1054 30.7379 83.5961 31.1104 83.0588C32.174 83.519 33.2749 83.9016 34.4047 84.2006C33.9219 84.5756 33.4144 84.9228 32.8845 85.2392ZM34.7941 83.8878C33.607 83.5901 32.4513 83.1987 31.3371 82.7208C31.7305 82.1137 32.0737 81.4736 32.362 80.8071C33.587 81.4931 34.8693 82.0811 36.1966 82.5628C35.7588 83.0325 35.2904 83.4753 34.7941 83.8878ZM36.4872 82.2421C35.1104 81.7525 33.7821 81.1469 32.5162 80.435C32.8246 79.6567 33.059 78.8452 33.2124 78.0105C34.6337 79.015 36.1463 79.8903 37.7308 80.6229C37.3531 81.1894 36.9376 81.7305 36.4872 82.2421ZM37.9505 80.2837C36.3103 79.5294 34.7479 78.6202 33.2852 77.5713C33.4459 76.4874 33.4704 75.368 33.3434 74.2348C35.0668 75.8071 36.9613 77.1822 38.9885 78.3331C38.6897 79.0086 38.3426 79.6606 37.9505 80.2837ZM23.692 56.7056L23.6826 56.6531C23.4414 55.2848 23.2934 53.9217 23.2342 52.5702C22.6577 52.8521 22.1005 53.1635 21.564 53.5023C21.5154 54.6675 21.5392 55.8462 21.6392 57.033C21.8919 56.9754 22.1472 56.9238 22.4052 56.8784C22.8354 56.8025 23.2646 56.7451 23.692 56.7056ZM21.2459 57.1279C21.1483 55.9997 21.1187 54.8788 21.1539 53.7694C20.6436 54.1118 20.1534 54.4794 19.6846 54.8701C19.5643 55.7995 19.4947 56.7414 19.4784 57.6924C20.0499 57.4715 20.6396 57.2825 21.2459 57.1279ZM19.076 57.8545C19.0853 56.9808 19.1388 56.1144 19.2348 55.2579C18.7988 55.6467 18.3829 56.0562 17.9885 56.4844C17.8316 57.1673 17.7056 57.8601 17.6117 58.561C18.084 58.3016 18.5725 58.0655 19.076 57.8545ZM17.1767 58.809C17.2462 58.2335 17.3369 57.663 17.4483 57.0986C17.1082 57.5036 16.7864 57.9234 16.4838 58.3567C16.3527 58.7309 16.2323 59.1096 16.1229 59.4922C16.4637 59.2512 16.8151 59.0232 17.1767 58.809ZM15.6038 59.8761C15.6242 59.7971 15.6451 59.7184 15.6665 59.6398C15.6023 59.7507 15.5394 59.8622 15.4776 59.9745C15.5195 59.9415 15.5615 59.9087 15.6038 59.8761ZM31.7863 86.2787C32.5623 86.2453 33.3452 86.1607 34.131 86.0222C34.4556 85.9649 34.7766 85.8992 35.0938 85.8253C34.378 85.8049 33.6687 85.7474 32.9683 85.6544C32.5853 85.8784 32.1911 86.0868 31.7863 86.2787ZM33.5178 85.3175C34.5199 85.4254 35.539 85.4592 36.5685 85.4142C37.0726 85.2501 37.5654 85.0646 38.0462 84.8591C36.9764 84.7528 35.9233 84.5731 34.8928 84.3242C34.4547 84.6787 33.9958 85.0106 33.5178 85.3175ZM35.2766 84.0033C36.4233 84.2645 37.5977 84.4387 38.791 84.5199C39.3175 84.2653 39.8281 83.986 40.3215 83.6838C39.0536 83.4499 37.8125 83.1225 36.607 82.7078C36.1906 83.1646 35.7464 83.5974 35.2766 84.0033ZM36.8948 82.3832C38.1678 82.8117 39.4805 83.1417 40.8222 83.3655C41.3342 83.0278 41.8264 82.6649 42.2973 82.2788C40.8553 81.8914 39.4522 81.3925 38.0998 80.7903C37.7326 81.3461 37.3301 81.8782 36.8948 82.3832ZM38.3185 80.4498C39.7191 81.0697 41.1744 81.5774 42.6713 81.9635C43.1539 81.5452 43.6126 81.1018 44.0459 80.636C42.4166 80.0632 40.8425 79.3574 39.3391 78.5292C39.0435 79.1933 38.7022 79.8351 38.3185 80.4498ZM39.4978 78.1599C41.0412 79.0127 42.6603 79.7347 44.338 80.3141C44.7821 79.8125 45.1975 79.2865 45.5821 78.739C43.7196 77.929 41.9367 76.954 40.255 75.829C40.0636 76.6286 39.8097 77.4077 39.4978 78.1599ZM48.9338 65.3746C49.6191 69.261 49.0139 73.0765 47.426 76.3815C48.6984 77.0275 50.0112 77.5991 51.3577 78.0915C55.0499 73.6485 56.837 67.6715 55.7552 61.5368C53.8028 50.4642 43.2439 43.0707 32.1712 45.0231C30.6354 45.2939 29.1704 45.7303 27.7913 46.3107C27.8709 47.7224 28.0345 49.1445 28.2861 50.5715L28.2869 50.576C38.021 49.0756 47.2151 55.6272 48.9338 65.3746ZM27.8922 50.641L27.8922 50.6412C27.1913 50.7648 26.507 50.927 25.8409 51.1253C25.7122 49.859 25.657 48.5997 25.6719 47.3522C26.2307 47.0358 26.8073 46.7444 27.4004 46.48C27.4838 47.859 27.6465 49.2477 27.8922 50.641ZM25.2699 47.586C25.264 48.7968 25.3235 50.0182 25.4512 51.2462C24.821 51.4493 24.2079 51.685 23.6134 51.951C23.5863 50.8287 23.621 49.7153 23.7148 48.6146C24.2152 48.2494 24.734 47.906 25.2699 47.586ZM23.288 48.9348C23.2102 49.991 23.1861 51.0584 23.2182 52.1337C22.657 52.4012 22.1134 52.696 21.5885 53.0162C21.6469 52.03 21.7571 51.0541 21.9169 50.0918C22.3557 49.6871 22.8131 49.3009 23.288 48.9348ZM21.441 50.5451C21.3086 51.4455 21.2189 52.357 21.1738 53.2771C20.6873 53.5923 20.2179 53.9296 19.7669 54.2875C19.8965 53.4418 20.0681 52.6072 20.28 51.7864C20.6492 51.3572 21.0365 50.943 21.441 50.5451ZM19.6978 52.4947C19.5377 53.2089 19.4076 53.9324 19.3083 54.6638C18.9179 54.9949 18.5424 55.3419 18.1825 55.7034C18.3632 55.0273 18.5743 54.3617 18.8146 53.7087C19.094 53.2934 19.3886 52.8885 19.6978 52.4947ZM17.9127 55.1791C17.807 55.5469 17.7102 55.9179 17.6225 56.2918C17.4154 56.5193 17.2141 56.752 17.0189 56.9895C17.2872 56.3708 17.5856 55.7666 17.9127 55.1791ZM39.2415 85.1209C38.8394 85.1918 38.438 85.2504 38.0376 85.2969C38.3189 85.1799 38.5963 85.0562 38.8696 84.926C39.2482 84.95 39.6287 84.9648 40.0107 84.9702C39.7564 85.0251 39.4999 85.0753 39.2415 85.1209ZM41.6921 84.5325C40.9884 84.5741 40.2887 84.583 39.5946 84.5603C40.046 84.3198 40.485 84.0611 40.9109 83.7855C41.6351 83.9017 42.3674 83.9876 43.1063 84.0419C42.6439 84.2217 42.1723 84.3855 41.6921 84.5325ZM43.9545 83.6897C43.095 83.6544 42.2436 83.5758 41.4029 83.4555C41.8779 83.1255 42.3352 82.7739 42.7739 82.4024C43.6608 82.6243 44.5617 82.8042 45.4741 82.9402C44.9808 83.2098 44.4739 83.4601 43.9545 83.6897ZM46.0452 82.6159C45.0641 82.4882 44.0956 82.3091 43.1433 82.081C43.6045 81.6685 44.0435 81.2335 44.4589 80.7779C45.4684 81.1169 46.4984 81.405 47.5452 81.6397C47.0616 81.9858 46.5613 82.3117 46.0452 82.6159ZM47.9745 81.3239C46.8796 81.0916 45.8029 80.8002 44.7485 80.4527C45.1795 79.9569 45.5831 79.4384 45.9578 78.8997C47.0808 79.3719 48.2319 79.7845 49.4065 80.1342C48.9487 80.5513 48.471 80.9485 47.9745 81.3239ZM51.7578 78.2351C55.4597 73.7167 57.243 67.6711 56.1492 61.4674C54.1584 50.1771 43.392 42.6384 32.1017 44.6292C30.5854 44.8966 29.1368 45.3222 27.7698 45.8862C27.7179 44.7196 27.7232 43.5605 27.7837 42.4121C30.3128 40.7532 33.2133 39.57 36.3809 39.0115C48.8649 36.8102 60.7696 45.146 62.9709 57.63C64.4488 66.0114 61.1771 74.1318 55.0892 79.2299C53.9596 78.9516 52.848 78.6192 51.7578 78.2351ZM27.3771 46.0529C27.3222 44.9243 27.3204 43.8025 27.3697 42.6902C26.8667 43.0361 26.3791 43.4011 25.9078 43.784C25.7842 44.8085 25.7079 45.8444 25.6807 46.889C26.2301 46.5861 26.7959 46.3069 27.3771 46.0529ZM25.2754 47.1184C25.2941 46.1223 25.3571 45.1337 25.4627 44.155C25.0169 44.5362 24.5867 44.9338 24.1726 45.3466C23.996 46.249 23.8594 47.1631 23.7645 48.0868C24.252 47.7435 24.756 47.4203 25.2754 47.1184ZM23.3322 48.3996C23.41 47.5461 23.5229 46.7004 23.6697 45.8641C23.2925 46.2645 22.93 46.6781 22.5829 47.1038C22.366 47.8752 22.1816 48.6583 22.0309 49.4512C22.4494 49.0841 22.8834 48.7332 23.3322 48.3996ZM21.5449 49.8912C21.6593 49.2225 21.7973 48.5603 21.9581 47.9056C21.6759 48.2847 21.4054 48.6723 21.147 49.068C20.9153 49.6749 20.7063 50.2918 20.5208 50.9175C20.8498 50.564 21.1913 50.2217 21.5449 49.8912ZM19.916 51.5965C19.9925 51.3044 20.0741 51.0141 20.1606 50.7256C19.9057 51.1976 19.6672 51.6789 19.4456 52.1686C19.5989 51.9752 19.7558 51.7844 19.916 51.5965ZM43.3565 84.3735C43.688 84.3297 44.02 84.2786 44.3524 84.2199C44.5452 84.1859 44.737 84.1496 44.9278 84.111C44.628 84.1102 44.329 84.1042 44.031 84.0931C43.8084 84.1903 43.5835 84.2838 43.3565 84.3735ZM44.8565 83.7107C45.5059 83.7143 46.1593 83.693 46.8157 83.6461C47.2695 83.5139 47.7166 83.3684 48.1567 83.2102C47.476 83.1743 46.7999 83.114 46.1296 83.03C45.7149 83.2708 45.2904 83.4979 44.8565 83.7107ZM46.6907 82.6923C47.4891 82.7774 48.2954 82.8285 49.1077 82.8443C49.6169 82.6352 50.1158 82.4088 50.6039 82.1659C49.7501 82.0629 48.9047 81.9247 48.0696 81.7526C47.6242 82.0832 47.1643 82.3968 46.6907 82.6923ZM48.4934 81.4293C49.3994 81.6052 50.3173 81.7408 51.2446 81.8343C51.7608 81.5567 52.2642 81.2603 52.754 80.9462C51.7745 80.7613 50.8075 80.5334 49.8554 80.2644C49.4193 80.6712 48.965 81.06 48.4934 81.4293ZM63.3648 57.5605C64.8501 65.9838 61.6204 74.1479 55.5717 79.3452C56.5262 79.5664 57.493 79.749 58.4701 79.8917C67.0974 74.5513 72.0556 64.3247 70.1862 53.7228C67.7361 39.8275 54.4856 30.5494 40.5903 32.9995C35.7871 33.8464 31.5357 35.9838 28.1296 38.9923C27.9847 39.9575 27.8788 40.9329 27.8132 41.9165C30.3272 40.3131 33.1921 39.1676 36.3114 38.6175C49.013 36.3779 61.1252 44.859 63.3648 57.5605ZM27.6652 39.4128C27.54 40.3301 27.4497 41.2562 27.3953 42.1894C26.9102 42.5137 26.4387 42.8554 25.9817 43.2133C26.1024 42.3406 26.2575 41.4766 26.4457 40.6229C26.8381 40.2065 27.2448 39.8029 27.6652 39.4128ZM25.915 41.2037C25.759 41.9867 25.6305 42.7778 25.5303 43.5759C25.1132 43.9195 24.709 44.277 24.318 44.6474C24.4826 43.8996 24.6748 43.1605 24.8937 42.4313C25.2212 42.0118 25.5618 41.6024 25.915 41.2037ZM24.226 43.326C24.0672 43.9281 23.9263 44.5364 23.8037 45.15C23.4827 45.4734 23.1715 45.8059 22.8704 46.1469C23.0562 45.5661 23.2606 44.9926 23.483 44.4272C23.7211 44.0538 23.9689 43.6866 24.226 43.326ZM22.4117 46.2715C22.3454 46.4853 22.2816 46.7001 22.2203 46.9158C22.1029 47.0608 21.9873 47.2072 21.8735 47.3549C22.0445 46.9893 22.2239 46.6281 22.4117 46.2715ZM49.4629 83.3187C49.2002 83.365 48.9377 83.4071 48.6754 83.4451C48.8456 83.3806 49.0148 83.3141 49.1828 83.2458C49.4019 83.2494 49.6213 83.2505 49.8412 83.2491C49.7155 83.2732 49.5894 83.2964 49.4629 83.3187ZM51.9352 82.7569C51.3239 82.8066 50.7147 82.8361 50.1084 82.846C50.5216 82.6567 50.9275 82.4561 51.3261 82.2445C51.946 82.3045 52.57 82.3461 53.1975 82.3686C52.7821 82.5083 52.3613 82.6378 51.9352 82.7569ZM54.2512 81.9885C53.4808 81.987 52.7152 81.9564 51.9554 81.8977C52.4238 81.63 52.8812 81.3469 53.3271 81.0492C54.1166 81.1841 54.9137 81.2911 55.7172 81.3693C55.2372 81.59 54.7484 81.7966 54.2512 81.9885ZM59.0856 79.976C67.5975 74.4857 72.4494 64.2542 70.5801 53.6533C68.0917 39.5405 54.6337 30.1171 40.5208 32.6056C35.8113 33.436 31.624 35.4879 28.2273 38.3782C28.3666 37.5494 28.5347 36.7285 28.7306 35.9167C32.7896 31.3827 38.3421 28.1262 44.8 26.9875C60.1065 24.2885 74.7029 34.509 77.4018 49.8156C79.6623 62.6356 72.86 74.9574 61.5971 80.2081C60.7537 80.1602 59.9161 80.0825 59.0856 79.976ZM27.7558 38.7893C27.8714 38.0398 28.0103 37.2965 28.1718 36.5602C27.8404 36.9537 27.5198 37.356 27.2105 37.7667C26.992 38.4579 26.7957 39.1577 26.6222 39.865C26.9888 39.4956 27.3668 39.1368 27.7558 38.7893ZM26.0789 40.4293C26.205 39.8662 26.3453 39.3077 26.4996 38.7541C26.2655 39.0945 26.0387 39.4401 25.8196 39.7905C25.608 40.3161 25.4106 40.8482 25.2279 41.3862C25.5035 41.0605 25.7873 40.7414 26.0789 40.4293ZM24.5321 42.2446C24.5749 42.1033 24.6187 41.9624 24.6634 41.8218C24.5407 42.0598 24.4213 42.2997 24.3053 42.5413C24.3802 42.4419 24.4558 42.343 24.5321 42.2446ZM53.9903 82.5141C54.1846 82.4839 54.3792 82.4517 54.5738 82.4174L54.6852 82.3975L54.7515 82.3855C54.6093 82.3875 54.4672 82.3885 54.3253 82.3886C54.214 82.4312 54.1023 82.473 53.9903 82.5141ZM55.3508 81.9709C55.9158 81.9517 56.4831 81.9168 57.0519 81.8659C57.4499 81.7585 57.8439 81.6428 58.2337 81.5192C57.6552 81.5065 57.0792 81.4789 56.5062 81.4368C56.1268 81.6237 55.7415 81.8019 55.3508 81.9709ZM61.6748 80.6131C61.317 80.7784 60.9548 80.9366 60.5884 81.0876C61.1142 81.062 61.6416 81.0238 62.1704 80.9728C62.5388 80.8763 62.9042 80.7733 63.2663 80.664C62.7338 80.6587 62.2032 80.6417 61.6748 80.6131ZM59.3797 81.5537L59.3025 81.5813C59.423 81.5616 59.5436 81.5411 59.6642 81.52C59.5972 81.5213 59.5302 81.5225 59.4632 81.5235L59.3797 81.5537ZM26.8497 37.5811C26.8122 37.6311 26.7749 37.6813 26.7377 37.7316C26.7967 37.6112 26.8565 37.4913 26.9171 37.3718C26.8944 37.4414 26.8719 37.5112 26.8497 37.5811ZM28.3654 35.7253C28.101 36.0227 27.8429 36.3255 27.5913 36.6335C27.7687 36.1353 27.9578 35.6421 28.1582 35.1541C28.3585 34.8283 28.5649 34.5063 28.7771 34.1883C28.6288 34.6967 28.4915 35.2091 28.3654 35.7253ZM57.4285 8.95188C45.8448 10.9944 36.5429 18.3743 31.606 28.1165C36.5628 21.2114 44.1175 16.1626 53.1496 14.5699C71.4963 11.3349 88.9917 23.5853 92.2267 41.932C95.1539 58.5331 85.4022 74.4373 69.9276 79.71C89.4559 76.2545 102.492 57.6273 99.0481 38.0943C95.6026 18.5539 76.9689 5.50639 57.4285 8.95188Z" fill="url(#paint0_linear_463_5931)"/>
</g>
<defs>
<linearGradient id="paint0_linear_463_5931" x1="91" y1="86.8621" x2="17.0602" y2="-7.09462" gradientUnits="userSpaceOnUse">
<stop stop-color="#A56319"/>
<stop offset="1" stop-color="#E08925" stop-opacity="0"/>
</linearGradient>
<clipPath id="clip0_463_5931">
<rect width="100" height="100" fill="white"/>
</clipPath>
</defs>
</svg>
