<svg width="100" height="100" viewBox="0 0 100 100" fill="none" xmlns="http://www.w3.org/2000/svg">
<path fill-rule="evenodd" clip-rule="evenodd" d="M78.4194 1H3V76.4194H11.6774V12.2903V11.2903H12.6774H78.4194V1ZM3 77.4194H11.6774V87.7097V88.7097H12.6774H21.3548V99V100H22.3548H97.7742H98.7742V99V23.5806V22.5806H97.7742H89.0968V12.2903V11.2903H88.0968H79.4194V1V0H78.4194H3H2V1V76.4194V77.4194H3ZM88.0968 22.5806V12.2903H79.4194V22.5806H88.0968ZM79.4194 23.5806H88.0968V87.7097H22.3548V77.4194H78.4194H79.4194V76.4194V23.5806ZM78.4194 22.5806V12.2903H12.6774V76.4194H21.3548V23.5806V22.5806H22.3548H78.4194ZM22.3548 76.4194V23.5806H78.4194V76.4194H22.3548ZM21.3548 77.4194H12.6774V87.7097H21.3548V77.4194ZM22.3548 88.7097H88.0968H89.0968V87.7097V23.5806H97.7742V99H22.3548V88.7097Z" fill="url(#paint0_linear_463_5950)"/>
<defs>
<linearGradient id="paint0_linear_463_5950" x1="90.0645" y1="94.5" x2="-1.06167" y2="0.983416" gradientUnits="userSpaceOnUse">
<stop stop-color="#A56319"/>
<stop offset="1" stop-color="#E08925" stop-opacity="0"/>
</linearGradient>
</defs>
</svg>
