<svg width="100" height="100" viewBox="0 0 100 100" fill="none" xmlns="http://www.w3.org/2000/svg">
<g clip-path="url(#clip0_463_6038)">
<path fill-rule="evenodd" clip-rule="evenodd" d="M74.5401 6.09652L25.4983 6.65348L2.05626 47.2563L24.5193 92.687L74.9258 92.9115L99.9238 49.6137L74.5401 6.09652ZM85.5479 71.4444L97.7111 50.3771L78.2698 50.2905L65.9558 71.6189L85.5479 71.4444ZM84.6573 72.987L74.0421 91.373L54.6008 91.2864L65.0653 73.1614L84.6573 72.987ZM63.2842 73.1773L52.8334 91.2785L26.3225 91.1605L36.5677 73.4152L63.2842 73.1773ZM35.2428 72.6409L25.0493 90.2967L13.1964 66.3247L22.7719 49.7395L35.2428 72.6409ZM23.6711 48.182L36.142 71.0835L48.6666 49.3903L36.0561 26.9641L35.9199 26.9664L23.6711 48.182ZM21.9118 48.16L12.379 64.6714L3.79585 47.3124L12.8811 31.5762L21.9118 48.16ZM13.7803 30.0188L22.811 46.6026L35.0254 25.4467L35.2012 25.4437L25.9354 8.96553L13.7803 30.0188ZM37.4583 71.8727L64.1748 71.6348L76.5024 50.2826L49.9915 50.1646L37.4583 71.8727ZM76.2677 48.747L49.9996 48.6301L37.8001 26.9348L63.2944 26.5059L76.2677 48.747ZM62.4079 24.986L36.9452 25.4144L27.2476 8.16826L52.4312 7.88226L62.4079 24.986ZM54.196 7.86221L64.1671 24.9564L83.5742 24.63L73.6646 7.64111L54.196 7.86221ZM84.4607 26.1498L65.0537 26.4763L78.0489 48.755L97.6974 48.8425L84.4607 26.1498Z" fill="url(#paint0_linear_463_6038)"/>
</g>
<defs>
<linearGradient id="paint0_linear_463_6038" x1="-2.55212" y1="70.7065" x2="117.409" y2="44.4578" gradientUnits="userSpaceOnUse">
<stop stop-color="#A56319"/>
<stop offset="1" stop-color="#E08925" stop-opacity="0"/>
</linearGradient>
<clipPath id="clip0_463_6038">
<rect width="100" height="100" fill="white"/>
</clipPath>
</defs>
</svg>
