<svg width="100" height="100" viewBox="0 0 100 100" fill="none" xmlns="http://www.w3.org/2000/svg">
<g clip-path="url(#clip0_463_5958)">
<path fill-rule="evenodd" clip-rule="evenodd" d="M13.38 33.3333H16.6666C25.8714 33.3333 33.3333 25.8714 33.3333 16.6666C33.3333 7.46191 25.8714 0 16.6666 0C7.46191 0 0 7.46191 0 16.6666V18.3332V20V21.6666V23.3331V25V26.6665V32.8531V32.8531V32.8532V32.8533V32.8534V32.9567V33.3331V33.3331V33.3332V33.3333V33.3334H0.479999H13.3333L13.38 33.3333ZM8.33332 17.1467C4.32186 17.1467 1.01288 20.1543 0.538379 24.0376C1.55842 21.6629 3.91832 19.9999 6.66665 19.9999C10.3485 19.9999 13.3333 22.9846 13.3333 26.6665C13.3333 29.415 11.67 31.7751 9.29511 32.795C13.1787 32.3208 16.1866 29.0116 16.1866 25C16.1866 20.6627 12.6706 17.1467 8.33332 17.1467ZM0.479999 32.8531V26.6665C0.479999 23.2497 3.24986 20.4799 6.66665 20.4799C10.0834 20.4799 12.8533 23.2497 12.8533 26.6665C12.8533 30.0727 10.1006 32.836 6.69847 32.8531H0.479999ZM11.4001 32.7509C15.994 32.0737 19.52 28.1152 19.52 23.3331C19.52 18.0754 15.2577 13.8131 9.99998 13.8131C5.2175 13.8131 1.25868 17.3396 0.582064 21.9341C1.8034 18.8489 4.81352 16.6667 8.33332 16.6667C12.9357 16.6667 16.6666 20.3976 16.6666 25C16.6666 28.5194 14.4849 31.5293 11.4001 32.7509ZM11.6666 10.4799C6.11271 10.4799 1.50409 14.5273 0.629447 19.8335C2.04807 16.0367 5.7083 13.3331 9.99998 13.3331C15.5228 13.3331 20 17.8103 20 23.3331C20 27.6251 17.2961 31.2855 13.4988 32.7039C18.8054 31.8296 22.8533 27.2208 22.8533 21.6666C22.8533 15.4884 17.8449 10.4799 11.6666 10.4799ZM0.678833 17.7356C1.74862 11.7168 7.00726 7.14673 13.3333 7.14673C20.432 7.14673 26.1866 12.9014 26.1866 20C26.1866 26.3264 21.616 31.5853 15.5968 32.6547C20.1065 31.0415 23.3333 26.7309 23.3333 21.6666C23.3333 15.2233 18.11 9.99993 11.6666 9.99993C6.60267 9.99993 2.29225 13.2263 0.678833 17.7356ZM29.5199 18.3332C29.5199 25.4312 24.4267 31.3397 17.6956 32.6034C22.9171 30.7964 26.6666 25.8361 26.6666 20C26.6666 12.6363 20.6971 6.66673 13.3333 6.66673C7.49666 6.66673 2.53594 10.417 0.729409 15.6393C1.99236 8.9073 7.90127 3.8132 15 3.8132C23.0191 3.8132 29.5199 10.314 29.5199 18.3332ZM0.546026 14.3086C2.30471 7.97881 8.10982 3.3332 15 3.3332C23.2842 3.3332 29.9999 10.0489 29.9999 18.3332C29.9999 25.2237 25.3538 31.0291 19.0234 32.7874C26.9033 31.6455 32.9567 24.863 32.9567 16.6666C32.9567 7.66991 25.6634 0.376615 16.6666 0.376615C8.47072 0.376615 1.68848 6.42932 0.546026 14.3086ZM16.6666 66.6666H13.3978L13.3333 66.6667H0.479999H0V66.6666V66.6665V66.29V66.1868V66.1866V66.1865V59.9999V58.3334V56.6665V55V53.3334V51.6666V50C0 40.7952 7.46191 33.3333 16.6666 33.3333C25.8714 33.3333 33.3333 40.7952 33.3333 50C33.3333 59.2047 25.8714 66.6666 16.6666 66.6666ZM0.538379 57.371C1.01288 53.4877 4.32186 50.4801 8.33332 50.4801C12.6706 50.4801 16.1866 53.9961 16.1866 58.3334C16.1866 62.345 13.1787 65.6542 9.29511 66.1284C11.67 65.1085 13.3333 62.7484 13.3333 59.9999C13.3333 56.318 10.3485 53.3333 6.66665 53.3333C3.91832 53.3333 1.55842 54.9963 0.538379 57.371ZM0.479999 59.9999V66.1865H6.69771C10.1002 66.1698 12.8533 63.4064 12.8533 59.9999C12.8533 56.5831 10.0834 53.8133 6.66665 53.8133C3.24986 53.8133 0.479999 56.5831 0.479999 59.9999ZM19.52 56.6665C19.52 61.4486 15.994 65.4071 11.4001 66.0843C14.4849 64.8627 16.6666 61.8528 16.6666 58.3334C16.6666 53.731 12.9357 50.0001 8.33332 50.0001C4.81352 50.0001 1.8034 52.1823 0.582064 55.2675C1.25868 50.673 5.2175 47.1465 9.99998 47.1465C15.2577 47.1465 19.52 51.4088 19.52 56.6665ZM0.629448 53.1669C1.50409 47.8607 6.11271 43.8133 11.6666 43.8133C17.8449 43.8133 22.8533 48.8218 22.8533 55C22.8533 60.5542 18.8054 65.163 13.4988 66.0373C17.2961 64.6189 20 60.9585 20 56.6665C20 51.1437 15.5228 46.6665 9.99998 46.6665C5.7083 46.6665 2.04807 49.3701 0.629448 53.1669ZM13.3333 40.4801C7.00726 40.4801 1.74862 45.0502 0.678833 51.069C2.29225 46.5597 6.60267 43.3333 11.6666 43.3333C18.11 43.3333 23.3333 48.5567 23.3333 55C23.3333 60.0643 20.1065 64.3749 15.5968 65.9881C21.616 64.9187 26.1866 59.6598 26.1866 53.3334C26.1866 46.2348 20.432 40.4801 13.3333 40.4801ZM17.6956 65.9368C24.4267 64.6732 29.5199 58.7647 29.5199 51.6666C29.5199 43.6474 23.0191 37.1466 15 37.1466C7.90127 37.1466 1.99236 42.2407 0.729409 48.9727C2.53594 43.7504 7.49666 40.0001 13.3333 40.0001C20.6971 40.0001 26.6666 45.9697 26.6666 53.3334C26.6666 59.1695 22.9171 64.1298 17.6956 65.9368ZM15 36.6666C8.10979 36.6666 2.30466 41.3122 0.546004 47.6421C1.68839 39.7627 8.47066 33.7099 16.6666 33.7099C25.6634 33.7099 32.9567 41.0032 32.9567 50C32.9567 58.1961 26.9036 64.9785 19.0239 66.1207C25.3541 64.3622 29.9999 58.5569 29.9999 51.6666C29.9999 43.3823 23.2842 36.6666 15 36.6666ZM16.6666 99.9999H0.376615H0V99.9999V99.9998V99.9997V99.6233V99.5199V99.5198V99.5197V93.3331V91.6665V89.9997V88.3331V86.6666V84.9997V83.3333C0 74.1286 7.46191 66.6666 16.6666 66.6666C25.8714 66.6666 33.3333 74.1286 33.3333 83.3333C33.3333 92.538 25.8714 99.9999 16.6666 99.9999ZM0.538379 90.7041C1.01288 86.8209 4.32186 83.8132 8.33332 83.8132C12.6706 83.8132 16.1866 87.3293 16.1866 91.6665C16.1866 95.6782 13.1787 98.9873 9.29512 99.4615C11.67 98.4416 13.3333 96.0816 13.3333 93.3331C13.3333 89.6512 10.3485 86.6664 6.66665 86.6664C3.91832 86.6664 1.55842 88.3295 0.538379 90.7041ZM0.479999 93.3331C0.479999 89.9163 3.24986 87.1464 6.66665 87.1464C10.0834 87.1464 12.8533 89.9163 12.8533 93.3331C12.8533 96.7393 10.1006 99.5025 6.69847 99.5196H0.479999V93.3331ZM9.99998 80.4797C5.2175 80.4797 1.25868 84.0062 0.582064 88.6007C1.8034 85.5154 4.81352 83.3332 8.33332 83.3332C12.9357 83.3332 16.6666 87.0642 16.6666 91.6665C16.6666 95.186 14.4849 98.1958 11.4001 99.4174C15.994 98.7403 19.52 94.7817 19.52 89.9997C19.52 84.7419 15.2577 80.4797 9.99998 80.4797ZM0.629447 86.5001C1.50409 81.1939 6.11271 77.1465 11.6666 77.1465C17.8449 77.1465 22.8533 82.1549 22.8533 88.3331C22.8533 93.8874 18.8054 98.4962 13.4988 99.3705C17.2961 97.952 20 94.2916 20 89.9997C20 84.4768 15.5228 79.9997 9.99998 79.9997C5.7083 79.9997 2.04807 82.7032 0.629447 86.5001ZM13.3333 73.8133C7.00726 73.8133 1.74862 78.3834 0.678833 84.4021C2.29225 79.8929 6.60267 76.6665 11.6666 76.6665C18.11 76.6665 23.3333 81.8898 23.3333 88.3331C23.3333 93.3974 20.1065 97.7081 15.5968 99.3212C21.616 98.2519 26.1866 92.993 26.1866 86.6666C26.1866 79.5679 20.432 73.8133 13.3333 73.8133ZM17.6956 99.27C24.4267 98.0063 29.5199 92.0978 29.5199 84.9997C29.5199 76.9806 23.0191 70.4798 15 70.4798C7.90127 70.4798 1.99236 75.5739 0.729409 82.3059C2.53594 77.0836 7.49666 73.3333 13.3333 73.3333C20.6971 73.3333 26.6666 79.3028 26.6666 86.6666C26.6666 92.5027 22.9171 97.463 17.6956 99.27ZM15 69.9997C8.10986 69.9997 2.30478 74.6453 0.546055 80.9751C1.68859 73.0959 8.47079 67.0433 16.6666 67.0433C25.6634 67.0433 32.9567 74.3366 32.9567 83.3333C32.9567 91.5299 26.9029 98.3126 19.0226 99.4542C25.3534 97.6961 29.9999 91.8905 29.9999 84.9997C29.9999 76.7155 23.2842 69.9997 15 69.9997ZM50.0001 99.9999H33.7101H33.3335L33.3333 99.9999V99.9998V99.9997V99.5199V99.5198V99.5197V93.3331V91.6665V89.9997V88.3331V86.6666V84.9997L33.3335 84.9274V83.3333C33.3335 74.1286 40.7954 66.6666 50.0001 66.6666C59.1897 66.6666 66.6422 74.104 66.6667 83.2879C66.6912 74.104 74.1437 66.6666 83.3333 66.6666C92.538 66.6666 99.9999 74.1286 99.9999 83.3333C99.9999 92.538 92.538 99.9999 83.3333 99.9999H67.0433H66.6666V99.6233V83.3978C66.6319 92.5728 59.1834 99.9999 50.0001 99.9999ZM33.8717 90.7041C34.3462 86.8209 37.6552 83.8132 41.6666 83.8132C46.0039 83.8132 49.52 87.3293 49.52 91.6665C49.52 95.6782 46.512 98.9873 42.6284 99.4615C45.0034 98.4416 46.6666 96.0816 46.6666 93.3331C46.6666 89.6512 43.6819 86.6664 40 86.6664C37.2516 86.6664 34.8917 88.3295 33.8717 90.7041ZM33.8133 93.3331C33.8133 89.9163 36.5832 87.1464 40 87.1464C43.4168 87.1464 46.1866 89.9163 46.1866 93.3331C46.1866 96.7393 43.434 99.5025 40.0318 99.5196H33.8133V93.3331ZM43.3333 80.4797C38.5508 80.4797 34.592 84.0062 33.9154 88.6007C35.1367 85.5154 38.1468 83.3332 41.6666 83.3332C46.269 83.3332 50 87.0642 50 91.6665C50 95.186 47.8182 98.1958 44.7334 99.4174C49.3274 98.7403 52.8533 94.7817 52.8533 89.9997C52.8533 84.7419 48.591 80.4797 43.3333 80.4797ZM33.9628 86.5001C34.8374 81.1939 39.446 77.1465 45 77.1465C51.1782 77.1465 56.1866 82.1549 56.1866 88.3331C56.1866 93.8874 52.1388 98.4962 46.8321 99.3705C50.6294 97.952 53.3333 94.2916 53.3333 89.9997C53.3333 84.4768 48.8561 79.9997 43.3333 79.9997C39.0416 79.9997 35.3814 82.7032 33.9628 86.5001ZM46.6666 73.8133C40.3406 73.8133 35.0819 78.3834 34.0122 84.4021C35.6256 79.8929 39.936 76.6665 45 76.6665C51.4433 76.6665 56.6666 81.8898 56.6666 88.3331C56.6666 93.3974 53.4398 97.7081 48.9301 99.3212C54.9493 98.2519 59.5199 92.993 59.5199 86.6666C59.5199 79.5679 53.7653 73.8133 46.6666 73.8133ZM51.0289 99.27C57.7601 98.0063 62.8533 92.0978 62.8533 84.9997C62.8533 76.9806 56.3525 70.4798 48.3333 70.4798C41.2346 70.4798 35.3257 75.5739 34.0627 82.3059C35.8693 77.0836 40.83 73.3333 46.6666 73.3333C54.0304 73.3333 59.9999 79.3028 59.9999 86.6666C59.9999 92.5027 56.2504 97.463 51.0289 99.27ZM48.3333 69.9997C41.4437 69.9997 35.6389 74.6447 33.8797 80.9738C35.0228 73.0952 41.8047 67.0433 50.0001 67.0433C58.9969 67.0433 66.2902 74.3366 66.2902 83.3333C66.2902 91.53 60.2362 98.3128 52.3558 99.4542C58.6867 97.6962 63.3333 91.8906 63.3333 84.9997C63.3333 76.7155 56.6176 69.9997 48.3333 69.9997ZM67.2125 80.9762C68.9709 74.6459 74.7763 69.9997 81.6668 69.9997C89.951 69.9997 96.6667 76.7155 96.6667 84.9997C96.6667 91.8905 92.0203 97.696 85.6896 99.4541C93.5697 98.3124 99.6233 91.5298 99.6233 83.3333C99.6233 74.3366 92.33 67.0433 83.3333 67.0433C75.137 67.0433 68.3546 73.0964 67.2125 80.9762ZM81.6668 70.4798C74.5681 70.4798 68.6592 75.5739 67.3962 82.3059C69.2027 77.0836 74.1635 73.3333 80.0001 73.3333C87.3639 73.3333 93.3334 79.3028 93.3334 86.6666C93.3334 92.5027 89.5839 97.463 84.3624 99.27C91.0935 98.0063 96.1867 92.0978 96.1867 84.9997C96.1867 76.9806 89.6859 70.4798 81.6668 70.4798ZM73.3335 87.1464C69.9167 87.1464 67.1468 89.9163 67.1468 93.3331V99.5196H73.3653C76.7674 99.5025 79.5201 96.7393 79.5201 93.3331C79.5201 89.9163 76.7502 87.1464 73.3335 87.1464ZM67.2052 90.7041C67.6797 86.8209 70.9887 83.8132 75.0001 83.8132C79.3374 83.8132 82.8534 87.3293 82.8534 91.6665C82.8534 95.6782 79.8455 98.9873 75.9619 99.4615C78.3368 98.4416 80.0001 96.0816 80.0001 93.3331C80.0001 89.6512 77.0153 86.6664 73.3335 86.6664C70.5851 86.6664 68.2252 88.3295 67.2052 90.7041ZM76.6668 80.4797C71.8843 80.4797 67.9255 84.0062 67.2489 88.6007C68.4702 85.5154 71.4803 83.3332 75.0001 83.3332C79.6025 83.3332 83.3334 87.0642 83.3334 91.6665C83.3334 95.186 81.1517 98.1958 78.0669 99.4174C82.6608 98.7403 86.1868 94.7817 86.1868 89.9997C86.1868 84.7419 81.9245 80.4797 76.6668 80.4797ZM67.2962 86.5001C68.1709 81.1939 72.7795 77.1465 78.3334 77.1465C84.5117 77.1465 89.5201 82.1549 89.5201 88.3331C89.5201 93.8874 85.4722 98.4962 80.1656 99.3705C83.9629 97.952 86.6668 94.2916 86.6668 89.9997C86.6668 84.4768 82.1896 79.9997 76.6668 79.9997C72.3751 79.9997 68.7149 82.7032 67.2962 86.5001ZM67.3456 84.4021C68.4154 78.3834 73.6741 73.8133 80.0001 73.8133C87.0988 73.8133 92.8534 79.5679 92.8534 86.6666C92.8534 92.993 88.2828 98.2519 82.2636 99.3212C86.7733 97.7081 90.0001 93.3974 90.0001 88.3331C90.0001 81.8898 84.7767 76.6665 78.3334 76.6665C73.2695 76.6665 68.959 79.8929 67.3456 84.4021ZM33.3333 53.3334V55V56.6665V58.3334V59.9999V66.1865V66.1866V66.1868V66.6665V66.6665V66.6666V66.6667H33.8133H46.6666L46.7311 66.6666H50.0001C59.1834 66.6666 66.6319 59.2395 66.6666 50.0644V66.29V66.6666H66.6668V66.6667H67.1468H80.0001L80.0646 66.6666H83.3333C92.538 66.6666 99.9999 59.2047 99.9999 50C99.9999 40.7952 92.538 33.3333 83.3333 33.3333C74.1437 33.3333 66.6912 40.7707 66.6667 49.9546C66.6422 40.7707 59.1897 33.3333 50.0001 33.3333C40.7954 33.3333 33.3335 40.7952 33.3335 50V51.5943L33.3333 51.6666V53.3334ZM33.8133 66.1865V59.9999C33.8133 56.5831 36.5832 53.8133 40 53.8133C43.4168 53.8133 46.1866 56.5831 46.1866 59.9999C46.1866 63.4064 43.4335 66.1698 40.031 66.1865H33.8133ZM46.6666 59.9999C46.6666 62.7484 45.0033 65.1085 42.6284 66.1284C46.512 65.6542 49.52 62.345 49.52 58.3334C49.52 53.9961 46.0039 50.4801 41.6666 50.4801C37.6552 50.4801 34.3462 53.4877 33.8717 57.371C34.8917 54.9963 37.2516 53.3333 40 53.3333C43.6819 53.3333 46.6666 56.318 46.6666 59.9999ZM44.7334 66.0843C49.3274 65.4071 52.8533 61.4486 52.8533 56.6665C52.8533 51.4088 48.591 47.1465 43.3333 47.1465C38.5508 47.1465 34.592 50.673 33.9154 55.2675C35.1367 52.1823 38.1468 50.0001 41.6666 50.0001C46.269 50.0001 50 53.731 50 58.3334C50 61.8528 47.8182 64.8627 44.7334 66.0843ZM53.3333 56.6665C53.3333 60.9585 50.6294 64.6189 46.8321 66.0373C52.1388 65.163 56.1866 60.5542 56.1866 55C56.1866 48.8218 51.1782 43.8133 45 43.8133C39.446 43.8133 34.8374 47.8607 33.9628 53.1669C35.3814 49.3701 39.0416 46.6665 43.3333 46.6665C48.8561 46.6665 53.3333 51.1437 53.3333 56.6665ZM48.9301 65.9881C54.9493 64.9187 59.5199 59.6598 59.5199 53.3334C59.5199 46.2348 53.7653 40.4801 46.6666 40.4801C40.3406 40.4801 35.0819 45.0502 34.0122 51.069C35.6256 46.5597 39.936 43.3333 45 43.3333C51.4433 43.3333 56.6666 48.5567 56.6666 55C56.6666 60.0643 53.4398 64.3749 48.9301 65.9881ZM62.8533 51.6666C62.8533 58.7647 57.7601 64.6732 51.0289 65.9368C56.2504 64.1298 59.9999 59.1695 59.9999 53.3334C59.9999 45.9697 54.0304 40.0001 46.6666 40.0001C40.83 40.0001 35.8693 43.7504 34.0627 48.9727C35.3257 42.2407 41.2346 37.1466 48.3333 37.1466C56.3525 37.1466 62.8533 43.6474 62.8533 51.6666ZM33.8797 47.6408C35.6388 41.3116 41.4436 36.6666 48.3333 36.6666C56.6176 36.6666 63.3333 43.3823 63.3333 51.6666C63.3333 58.557 58.6873 64.3623 52.3571 66.1207C60.2369 64.9787 66.2902 58.1962 66.2902 50C66.2902 41.0032 58.9969 33.7099 50.0001 33.7099C41.8046 33.7099 35.0226 39.7621 33.8797 47.6408ZM86.1868 56.6665C86.1868 61.4486 82.6608 65.4071 78.0669 66.0843C81.1517 64.8627 83.3334 61.8528 83.3334 58.3334C83.3334 53.731 79.6025 50.0001 75.0001 50.0001C71.4803 50.0001 68.4702 52.1823 67.2489 55.2675C67.9255 50.673 71.8843 47.1465 76.6668 47.1465C81.9245 47.1465 86.1868 51.4088 86.1868 56.6665ZM67.2052 57.371C68.2252 54.9963 70.5851 53.3333 73.3335 53.3333C77.0153 53.3333 80.0001 56.318 80.0001 59.9999C80.0001 62.7484 78.3368 65.1085 75.9619 66.1284C79.8455 65.6542 82.8534 62.345 82.8534 58.3334C82.8534 53.9961 79.3374 50.4801 75.0001 50.4801C70.9887 50.4801 67.6797 53.4877 67.2052 57.371ZM73.3645 66.1865C76.767 66.1698 79.5201 63.4064 79.5201 59.9999C79.5201 56.5831 76.7502 53.8133 73.3335 53.8133C69.9167 53.8133 67.1468 56.5831 67.1468 59.9999V66.1865H73.3645ZM80.1656 66.0373C85.4722 65.163 89.5201 60.5542 89.5201 55C89.5201 48.8218 84.5117 43.8133 78.3334 43.8133C72.7795 43.8133 68.1709 47.8607 67.2962 53.1669C68.7149 49.3701 72.3751 46.6665 76.6668 46.6665C82.1896 46.6665 86.6668 51.1437 86.6668 56.6665C86.6668 60.9585 83.9629 64.6189 80.1656 66.0373ZM90.0001 55C90.0001 60.0643 86.7733 64.3749 82.2636 65.9881C88.2828 64.9187 92.8534 59.6598 92.8534 53.3334C92.8534 46.2348 87.0988 40.4801 80.0001 40.4801C73.6741 40.4801 68.4154 45.0502 67.3456 51.069C68.959 46.5597 73.2695 43.3333 78.3334 43.3333C84.7767 43.3333 90.0001 48.5567 90.0001 55ZM84.3624 65.9368C89.5839 64.1298 93.3334 59.1695 93.3334 53.3334C93.3334 45.9697 87.3639 40.0001 80.0001 40.0001C74.1635 40.0001 69.2027 43.7504 67.3962 48.9727C68.6592 42.2407 74.5681 37.1466 81.6668 37.1466C89.6859 37.1466 96.1867 43.6474 96.1867 51.6666C96.1867 58.7647 91.0935 64.6732 84.3624 65.9368ZM81.6668 36.6666C74.7762 36.6666 68.9708 41.3128 67.2125 47.6432C68.3544 39.7633 75.1369 33.7099 83.3333 33.7099C92.33 33.7099 99.6233 41.0032 99.6233 50C99.6233 58.196 93.5704 64.9783 85.6909 66.1206C92.0209 64.3621 96.6667 58.5569 96.6667 51.6666C96.6667 43.3823 89.951 36.6666 81.6668 36.6666ZM33.3333 21.6666V20V18.3332L33.3335 18.2609V16.6666C33.3335 7.46191 40.7954 0 50.0001 0C59.1897 0 66.6422 7.43741 66.6667 16.6213C66.6912 7.43741 74.1437 0 83.3333 0C92.538 0 99.9999 7.46191 99.9999 16.6666C99.9999 25.8714 92.538 33.3333 83.3333 33.3333H80.0468L80.0001 33.3334H67.1468H66.6668V33.3333H66.6666V32.9567V16.7311C66.6319 25.9062 59.1834 33.3333 50.0001 33.3333H46.7133L46.6666 33.3334H33.8133H33.3333V33.3333V33.3332V33.3331V33.3331V32.8534V32.8533V32.8532V32.8531V32.8531V26.6665V25V23.3331V21.6666ZM33.8133 26.6665V32.8531H40.0318C43.434 32.836 46.1866 30.0727 46.1866 26.6665C46.1866 23.2497 43.4168 20.4799 40 20.4799C36.5832 20.4799 33.8133 23.2497 33.8133 26.6665ZM42.6284 32.795C45.0033 31.7751 46.6666 29.415 46.6666 26.6665C46.6666 22.9846 43.6819 19.9999 40 19.9999C37.2516 19.9999 34.8917 21.6629 33.8717 24.0376C34.3462 20.1543 37.6552 17.1467 41.6666 17.1467C46.0039 17.1467 49.52 20.6627 49.52 25C49.52 29.0116 46.512 32.3208 42.6284 32.795ZM52.8533 23.3331C52.8533 28.1152 49.3274 32.0737 44.7334 32.7509C47.8182 31.5293 50 28.5194 50 25C50 20.3976 46.269 16.6667 41.6666 16.6667C38.1468 16.6667 35.1367 18.8489 33.9154 21.9341C34.592 17.3396 38.5508 13.8131 43.3333 13.8131C48.591 13.8131 52.8533 18.0754 52.8533 23.3331ZM46.8321 32.7039C50.6294 31.2855 53.3333 27.6251 53.3333 23.3331C53.3333 17.8103 48.8561 13.3331 43.3333 13.3331C39.0416 13.3331 35.3814 16.0367 33.9628 19.8335C34.8374 14.5273 39.446 10.4799 45 10.4799C51.1782 10.4799 56.1866 15.4884 56.1866 21.6666C56.1866 27.2208 52.1388 31.8296 46.8321 32.7039ZM59.5199 20C59.5199 26.3264 54.9493 31.5853 48.9301 32.6547C53.4398 31.0415 56.6666 26.7309 56.6666 21.6666C56.6666 15.2233 51.4433 9.99993 45 9.99993C39.936 9.99993 35.6256 13.2263 34.0122 17.7356C35.0819 11.7168 40.3406 7.14673 46.6666 7.14673C53.7653 7.14673 59.5199 12.9014 59.5199 20ZM51.0289 32.6034C57.7601 31.3397 62.8533 25.4312 62.8533 18.3332C62.8533 10.314 56.3525 3.8132 48.3333 3.8132C41.2346 3.8132 35.3257 8.9073 34.0627 15.6393C35.8693 10.417 40.83 6.66673 46.6666 6.66673C54.0304 6.66673 59.9999 12.6363 59.9999 20C59.9999 25.8361 56.2504 30.7964 51.0289 32.6034ZM48.3333 3.3332C41.4436 3.3332 35.6388 7.97818 33.8797 14.3074C35.0227 6.42867 41.8047 0.376615 50.0001 0.376615C58.9969 0.376615 66.2902 7.66991 66.2902 16.6666C66.2902 24.8631 60.2366 31.6457 52.3565 32.7875C58.687 31.0292 63.3333 25.2238 63.3333 18.3332C63.3333 10.0489 56.6176 3.3332 48.3333 3.3332ZM82.8534 25C82.8534 29.0116 79.8455 32.3208 75.9619 32.795C78.3368 31.7751 80.0001 29.415 80.0001 26.6665C80.0001 22.9846 77.0153 19.9999 73.3335 19.9999C70.5851 19.9999 68.2252 21.6629 67.2052 24.0376C67.6797 20.1543 70.9887 17.1467 75.0001 17.1467C79.3374 17.1467 82.8534 20.6627 82.8534 25ZM67.1468 32.8531H73.3653C76.7674 32.836 79.5201 30.0727 79.5201 26.6665C79.5201 23.2497 76.7502 20.4799 73.3335 20.4799C69.9167 20.4799 67.1468 23.2497 67.1468 26.6665V32.8531ZM78.0669 32.7509C81.1517 31.5293 83.3334 28.5194 83.3334 25C83.3334 20.3976 79.6025 16.6667 75.0001 16.6667C71.4803 16.6667 68.4702 18.8489 67.2489 21.9341C67.9255 17.3396 71.8843 13.8131 76.6668 13.8131C81.9245 13.8131 86.1868 18.0754 86.1868 23.3331C86.1868 28.1152 82.6608 32.0737 78.0669 32.7509ZM82.2636 32.6547C88.2828 31.5853 92.8534 26.3264 92.8534 20C92.8534 12.9014 87.0988 7.14673 80.0001 7.14673C73.6741 7.14673 68.4154 11.7168 67.3456 17.7356C68.959 13.2263 73.2695 9.99993 78.3334 9.99993C84.7767 9.99993 90.0001 15.2233 90.0001 21.6666C90.0001 26.7309 86.7733 31.0415 82.2636 32.6547ZM78.3334 10.4799C72.7795 10.4799 68.1709 14.5273 67.2962 19.8335C68.7149 16.0367 72.3751 13.3331 76.6668 13.3331C82.1896 13.3331 86.6668 17.8103 86.6668 23.3331C86.6668 27.6251 83.9629 31.2855 80.1656 32.7039C85.4722 31.8296 89.5201 27.2208 89.5201 21.6666C89.5201 15.4884 84.5117 10.4799 78.3334 10.4799ZM93.3334 20C93.3334 25.8361 89.5839 30.7964 84.3624 32.6034C91.0935 31.3397 96.1867 25.4312 96.1867 18.3332C96.1867 10.314 89.6859 3.8132 81.6668 3.8132C74.5681 3.8132 68.6592 8.9073 67.3962 15.6393C69.2027 10.417 74.1635 6.66673 80.0001 6.66673C87.3639 6.66673 93.3334 12.6363 93.3334 20ZM67.2125 14.3098C68.9708 7.97935 74.7762 3.3332 81.6668 3.3332C89.951 3.3332 96.6667 10.0489 96.6667 18.3332C96.6667 25.2237 92.0207 31.029 85.6903 32.7874C93.5701 31.6453 99.6233 24.8629 99.6233 16.6666C99.6233 7.66991 92.33 0.376615 83.3333 0.376615C75.137 0.376615 68.3545 6.42989 67.2125 14.3098Z" fill="url(#paint0_linear_463_5958)"/>
</g>
<defs>
<linearGradient id="paint0_linear_463_5958" x1="90.9999" y1="94.5" x2="-6.9345e-05" y2="-1.99992" gradientUnits="userSpaceOnUse">
<stop stop-color="#A56319"/>
<stop offset="1" stop-color="#E08925" stop-opacity="0"/>
</linearGradient>
<clipPath id="clip0_463_5958">
<rect width="100" height="100" fill="white"/>
</clipPath>
</defs>
</svg>
