<svg width="200" height="72" viewBox="0 0 200 72" fill="none" xmlns="http://www.w3.org/2000/svg">
<path fill-rule="evenodd" clip-rule="evenodd" d="M138.897 62.402C156.142 62.402 170.122 48.4328 170.122 31.201C170.122 13.9692 156.142 0 138.897 0C121.652 0 107.672 13.9692 107.672 31.201H138.897V62.402Z" fill="#C4C4C4"/>
<path fill-rule="evenodd" clip-rule="evenodd" d="M138.897 62.402C156.142 62.402 170.122 48.4328 170.122 31.201C170.122 13.9692 156.142 0 138.897 0C121.652 0 107.672 13.9692 107.672 31.201H138.897V62.402Z" fill="url(#paint0_angular_1422_3171)"/>
<path d="M44.6275 63.7548V48.7612C44.6275 45.2469 42.3292 42.5795 38.8803 42.5795C35.5335 42.5795 33.3683 45.148 33.3683 48.4923V63.7548H28.7656V48.4892C28.7656 42.2735 32.7218 38.1504 38.9453 38.1504C45.1688 38.1504 49.224 42.1685 49.224 48.4892V63.7548H44.6275Z" fill="#1D1E20"/>
<path d="M54.2676 38.7605C57.3453 38.6585 61.3819 38.5225 64.3761 38.5225C69.9438 38.5225 73.6557 41.0229 73.6557 45.2481C73.6557 47.8135 72.3349 49.7081 70.1727 50.7868C73.1484 51.7141 74.8125 53.7602 74.8125 56.8356C74.8125 61.3296 71.2956 64.0001 64.5679 64.0001C61.4902 64.0001 57.3669 63.8641 54.2892 63.7621L54.2676 38.7605ZM58.8671 49.2012H64.3112C67.0146 49.2012 68.9076 47.9835 68.9076 45.9219C68.9076 43.7954 67.1507 42.7383 64.0297 42.7383C62.4398 42.7383 60.4447 42.7383 58.8579 42.8403L58.8671 49.2012ZM58.8671 59.608C60.488 59.7409 62.6192 59.8089 64.2091 59.8089C67.9951 59.8089 69.9562 58.6932 69.9562 56.3627C69.9562 53.9642 67.8931 52.7804 64.6483 52.7804H58.8671V59.608Z" fill="#1D1E20"/>
<path d="M111.308 38.7598V49.1326H114.924L121.992 38.7598H127.164L118.914 50.814L127.637 63.7553H122.227L115.23 53.3485H111.308V63.7553H106.715V38.7598H111.308Z" fill="#1D1E20"/>
<path d="M24.662 48.3714C24.2846 45.2805 23.2329 43.117 21.9709 41.6705C21.7915 41.4634 21.5997 41.2686 21.4018 41.077C21.3306 41.0059 21.2564 40.9348 21.1853 40.8699L21.0584 40.7525C20.6361 40.3744 20.1829 40.0322 19.7036 39.7294C17.6135 38.44 15.1969 37.777 12.7408 37.8193C5.23986 37.8131 0 43.185 0 50.8193C0 58.4536 5.20584 63.7544 12.747 63.7544C16.5671 63.7544 19.883 62.4037 22.2153 59.9372L18.9365 56.5589C17.6157 58.2805 15.4195 59.3407 12.8831 59.3407C8.72279 59.3407 5.30791 56.5033 4.93673 52.7201H24.7331C24.8081 51.2706 24.7843 49.8177 24.662 48.3714V48.3714ZM12.5986 42.2392C14.0895 42.2156 15.557 42.612 16.8331 43.3828C17.828 44.0054 18.6117 44.9135 19.0819 45.9883C19.4647 46.8728 19.7078 47.8112 19.8026 48.7701H4.95529C5.40999 44.8725 8.48771 42.2392 12.6109 42.2392H12.5986Z" fill="#1D1E20"/>
<path d="M102.67 48.3714C102.293 45.2805 101.241 43.117 99.979 41.6705C99.7996 41.4634 99.6079 41.2686 99.4099 41.077C99.3388 41.0059 99.2645 40.9348 99.1934 40.8699L99.0666 40.7525C98.6442 40.3744 98.1911 40.0322 97.7117 39.7294C95.6216 38.44 93.205 37.777 90.749 37.8193C83.2418 37.8193 78.002 43.1911 78.002 50.8255C78.002 58.4598 83.2047 63.7544 90.7552 63.7544C94.5752 63.7544 97.8911 62.4037 100.223 59.9372L96.9446 56.5589C95.6238 58.2805 93.4277 59.3407 90.8913 59.3407C86.7309 59.3407 83.3161 56.5033 82.9449 52.7201H102.741C102.816 51.2706 102.792 49.8177 102.67 48.3714ZM90.6283 42.2392C92.1193 42.2156 93.5868 42.612 94.8629 43.3828C95.857 44.0063 96.6405 44.9141 97.1117 45.9883C97.493 46.8732 97.736 47.8114 97.8324 48.7701H82.9851C83.4181 44.8725 86.4958 42.2392 90.6283 42.2392Z" fill="#1D1E20"/>
<defs>
<radialGradient id="paint0_angular_1422_3171" cx="0" cy="0" r="1" gradientUnits="userSpaceOnUse" gradientTransform="translate(138.897 31.201) rotate(90) scale(31.201 31.2249)">
<stop stop-color="#FFBC7F"/>
<stop offset="0.40109" stop-color="#FFBD81"/>
<stop offset="0.760417" stop-color="#FF9D40"/>
<stop offset="0.9999" stop-color="#FF7E00"/>
</radialGradient>
</defs>
</svg>
