<svg width="200" height="72" viewBox="0 0 200 72" fill="none" xmlns="http://www.w3.org/2000/svg">
<path d="M43.9873 61.7663V46.8751C43.9873 43.3864 41.7215 40.736 38.3205 40.736C35.0218 40.736 32.891 43.2834 32.891 46.6035V61.7616H28.3594V46.6035C28.3594 40.4316 32.2582 36.3389 38.3903 36.3389C44.5549 36.3389 48.5189 40.3286 48.5189 46.6035V61.7616H43.9873V61.7663Z" fill="#1D1E20"/>
<path d="M53.4871 36.947C56.5205 36.8487 60.4845 36.7129 63.4482 36.7129C68.9475 36.7129 72.5765 39.1948 72.5765 43.3858C72.5765 45.9332 71.2784 47.811 69.1429 48.8881C72.074 49.7918 73.7071 51.8382 73.7071 54.8914C73.7071 59.354 70.2409 61.9998 63.611 61.9998C60.5776 61.9998 56.5112 61.864 53.4824 61.7657V36.947H53.4871ZM58.0187 47.31H63.3831C66.049 47.31 67.9146 46.1018 67.9146 44.0555C67.9146 41.9435 66.1839 40.904 63.1179 40.904C61.55 40.904 59.5866 40.904 58.0187 41.0023V47.31ZM58.0187 57.6401C59.6191 57.7759 61.7175 57.8415 63.2854 57.8415C67.0167 57.8415 68.9522 56.7364 68.9522 54.4184C68.9522 52.0349 66.919 50.8642 63.7227 50.8642H58.0233V57.6401H58.0187Z" fill="#1D1E20"/>
<path d="M109.698 36.9463V47.2437H113.261L120.226 36.9463H125.326L117.193 48.9201L125.791 61.7649H120.459L113.559 51.4348H109.698V61.7649H105.166V36.9463H109.698Z" fill="#1D1E20"/>
<path d="M24.3096 46.4859C23.9374 43.4327 22.8999 41.2833 21.6577 39.8364L21.6623 39.8317C21.4855 39.6256 21.2947 39.4336 21.0993 39.2416C21.0295 39.1714 20.9551 39.1012 20.8853 39.0356C20.8434 38.9981 20.8016 38.956 20.7597 38.9185C20.2898 38.4924 19.8338 38.1599 19.4244 37.9024C17.5122 36.6708 15.158 36.0059 12.5619 36.0059C5.16433 36.0059 0 41.3395 0 48.9162C0 56.5304 5.13176 61.761 12.5619 61.761C16.3258 61.761 19.5919 60.4218 21.8903 57.9727L18.6567 54.6198C17.3587 56.329 15.1906 57.3686 12.6922 57.3686C8.59328 57.3686 5.22945 54.5496 4.86189 50.794H24.3608C24.3701 50.7987 24.5096 48.1295 24.3096 46.4859ZM12.4363 40.403C13.9949 40.403 15.4278 40.7963 16.6096 41.5362C17.5913 42.1543 18.359 43.0581 18.8242 44.1211C19.1452 44.8469 19.4104 45.7554 19.5361 46.8745H4.90847C5.3365 43.0159 8.36993 40.403 12.4363 40.403Z" fill="#1D1E20"/>
<path d="M101.188 46.4859C100.816 43.4327 99.7788 41.2833 98.5366 39.8364L98.5412 39.8317C98.3644 39.6256 98.1736 39.4336 97.9782 39.2416C97.9084 39.1714 97.834 39.1012 97.7642 39.0356C97.7223 38.9981 97.6805 38.956 97.6386 38.9185C97.1687 38.4924 96.7127 38.1599 96.3033 37.9024C94.3911 36.6708 92.0369 36.0059 89.4408 36.0059C82.0432 36.0059 76.8789 41.3395 76.8789 48.9162C76.8789 56.5304 82.0107 61.761 89.4408 61.761C93.2047 61.761 96.4708 60.4218 98.7692 57.9727L95.5356 54.6198C94.2376 56.329 92.0695 57.3686 89.5711 57.3686C85.4722 57.3686 82.1084 54.5496 81.7408 50.794H101.24C101.249 50.7987 101.389 48.1295 101.188 46.4859ZM89.3105 40.403C90.8691 40.403 92.3021 40.7963 93.4838 41.5362C94.4655 42.1543 95.2332 43.0581 95.6985 44.1211C96.0195 44.8469 96.2847 45.7554 96.4103 46.8745H81.7827C82.2154 43.0159 85.2442 40.403 89.3105 40.403Z" fill="#1D1E20"/>
<path d="M7.02292 20.9082C6.19477 20.0466 5.46896 19.686 4.62219 19.686C3.88244 19.686 2.98914 19.9764 2.98914 20.852C2.98914 21.8729 4.2826 22.0742 5.59927 22.4582C6.90664 22.8422 8.20935 23.3995 8.20935 25.2023C8.20935 27.0614 6.78564 28.2414 4.63616 28.2414C3.10547 28.2414 1.65857 27.6701 0.71875 26.6774L1.78415 25.2819C2.62626 26.1201 3.68238 26.5556 4.63151 26.5556C5.40848 26.5556 6.30641 26.2372 6.30641 25.3475C6.30641 24.3126 5.01302 24.0457 3.71031 23.6617C2.40294 23.2356 1.11421 22.6924 1.11421 20.9551C1.11421 19.1897 2.47276 18.0518 4.55711 18.0518C6.03196 18.0518 7.31141 18.6231 8.15352 19.5783L7.02292 20.9082Z" fill="#1D1E20"/>
<path d="M11.8506 18.2393V22.3133H13.2603L16.0146 18.2393H18.0292L14.8142 22.9782L18.2153 28.059H16.1077L13.3766 23.971H11.8506V28.059H10.0547V18.2393H11.8506Z" fill="#1D1E20"/>
<path d="M24.6723 18.2393V19.8173H22.7601V26.4809H24.6723V28.059H19.0566V26.4809H20.9688V19.8173H19.0566V18.2393H24.6723Z" fill="#1D1E20"/>
<path d="M28.3752 18.2393V26.3966H32.288V28.059H26.584V18.2393H28.3752Z" fill="#1D1E20"/>
<path d="M35.6584 18.2393V26.3966H39.5758V28.059H33.8672V18.2393H35.6584Z" fill="#1D1E20"/>
<path d="M46.8101 20.9082C45.9819 20.0466 45.2561 19.686 44.4094 19.686C43.6696 19.686 42.7763 19.9764 42.7763 20.852C42.7763 21.8729 44.0697 22.0742 45.3864 22.4582C46.6937 22.8422 47.9965 23.3995 47.9965 25.2023C47.9965 27.0614 46.5728 28.2414 44.4233 28.2414C42.8926 28.2414 41.4457 27.6701 40.5059 26.6774L41.5713 25.2819C42.4134 26.1201 43.4696 26.5556 44.4187 26.5556C45.1956 26.5556 46.0936 26.2372 46.0936 25.3475C46.0936 24.3126 44.8002 24.0457 43.4975 23.6617C42.1901 23.2356 40.9014 22.6924 40.9014 20.9551C40.9014 19.1897 42.2599 18.0518 44.3442 18.0518C45.8191 18.0518 47.0986 18.6231 47.9407 19.5783L46.8101 20.9082Z" fill="#1D1E20"/>
<path d="M164.69 29.9082H134.975V59.817H164.69V29.9082Z" fill="url(#paint0_linear_1422_3174)"/>
<path d="M164.69 0H134.975V29.9088H164.69V0Z" fill="url(#paint1_linear_1422_3174)"/>
<path d="M134.974 0H105.258V29.9088H134.974V0Z" fill="url(#paint2_linear_1422_3174)"/>
<defs>
<linearGradient id="paint0_linear_1422_3174" x1="135.041" y1="44.8401" x2="164.763" y2="44.8401" gradientUnits="userSpaceOnUse">
<stop stop-color="#A893C1"/>
<stop offset="1" stop-color="#CEC4DF"/>
</linearGradient>
<linearGradient id="paint1_linear_1422_3174" x1="149.822" y1="30.2951" x2="149.822" y2="1.65192" gradientUnits="userSpaceOnUse">
<stop stop-color="#A893C1"/>
<stop offset="1" stop-color="#CEC4DF"/>
</linearGradient>
<linearGradient id="paint2_linear_1422_3174" x1="134.617" y1="14.934" x2="107.121" y2="14.934" gradientUnits="userSpaceOnUse">
<stop stop-color="#A893C1"/>
<stop offset="1" stop-color="#CEC4DF"/>
</linearGradient>
</defs>
</svg>
