<svg width="200" height="72" viewBox="0 0 200 72" fill="none" xmlns="http://www.w3.org/2000/svg">
<mask id="mask0_1422_3175" style="mask-type:alpha" maskUnits="userSpaceOnUse" x="0" y="0" width="173" height="72">
<rect width="172.8" height="72" fill="#D9D9D9"/>
</mask>
<g mask="url(#mask0_1422_3175)">
</g>
<g clip-path="url(#clip0_1422_3175)">
<path d="M33.8741 50.8094H44.3476V54.8536H29.6484V29.1279H33.8741V50.8094Z" fill="black"/>
<path d="M54.4249 50.8094H65.8145V54.8536H50.1992V29.1279H65.6329V33.1721H54.4249V39.8614H64.7127V43.8684H54.4249V50.8136V50.8094Z" fill="black"/>
<path d="M72.6035 29.1279H76.8292V46.0679C76.8292 49.1918 78.6656 51.2138 82.3424 51.2138C86.0193 51.2138 87.8557 49.1918 87.8557 46.0679V29.1279H92.0814V46.3237C92.0814 49.0804 91.1611 51.2469 89.3619 52.9016C87.5627 54.5193 85.2105 55.3281 82.3424 55.3281C79.4744 55.3281 77.1263 54.5193 75.323 52.9016C73.5238 51.2469 72.6035 49.0804 72.6035 46.3237V29.1279Z" fill="black"/>
<path d="M124.999 29.1279V54.8494H120.773V36.5147L112.945 49.4476H112.429L104.601 36.4775V54.8494H100.375V29.1279H104.931L112.685 41.9907L120.476 29.1279H124.995H124.999Z" fill="black"/>
<path d="M137.73 50.8094H149.119V54.8536H133.504V29.1279H148.938V33.1721H137.73V39.8614H148.017V43.8684H137.73V50.8136V50.8094Z" fill="black"/>
<path d="M173.038 29.1281V33.1723H165.8V54.8538H161.574V33.1682H154.299V29.124H173.038V29.1281Z" fill="black"/>
<path d="M19.386 54.8497L17.5868 49.6666H6.63461L4.83539 54.8497H0.238281L9.5728 29.124H14.6445L23.9419 54.8497H19.386ZM8.02943 45.6967H16.1878L12.1107 34.0843L8.02943 45.6967Z" fill="black"/>
<path d="M4.1875 25.1787C6.36859 25.1787 8.13672 23.4106 8.13672 21.2295C8.13672 19.0484 6.36859 17.2803 4.1875 17.2803C2.00641 17.2803 0.238281 19.0484 0.238281 21.2295C0.238281 23.4106 2.00641 25.1787 4.1875 25.1787Z" fill="#0067EF"/>
<path d="M16.0312 25.1746L19.9805 17.2803L23.9256 25.1746H16.0312Z" fill="#0067EF"/>
</g>
<defs>
<clipPath id="clip0_1422_3175">
<rect width="172.8" height="38.0479" fill="white" transform="translate(0.238281 17.2803)"/>
</clipPath>
</defs>
</svg>
