<svg width="200" height="72" viewBox="0 0 200 72" fill="none" xmlns="http://www.w3.org/2000/svg">
<path d="M140.944 0C122.55 0 107.639 14.8705 107.639 33.2142H117.693C117.693 20.4277 128.123 10.027 140.944 10.027C153.766 10.027 164.195 20.4277 164.195 33.2142C164.195 46.0007 153.766 56.4014 140.944 56.4014V66.4284C159.339 66.4284 174.25 51.5579 174.25 33.2142C174.25 14.8657 159.339 0 140.944 0Z" fill="url(#paint0_linear_1843_3525)"/>
<path d="M45.9409 67.76V52.3482C45.9409 48.7407 43.5726 45.9956 40.0225 45.9956C36.578 45.9956 34.349 48.6353 34.349 52.0703V67.76H29.6172V52.0703C29.6172 45.6842 33.6909 41.4492 40.0945 41.4492C46.5318 41.4492 50.6728 45.5788 50.6728 52.0703V67.76H45.9409V67.76Z" fill="#1D1E20"/>
<path d="M55.8594 42.0725C59.0252 41.9671 63.1661 41.8281 66.2646 41.8281C72.0053 41.8281 75.8005 44.396 75.8005 48.7364C75.8005 51.3761 74.4409 53.3163 72.2167 54.4278C75.2816 55.3668 76.987 57.4843 76.987 60.6414C76.987 65.2596 73.3696 67.9999 66.4424 67.9999C63.2766 67.9999 59.03 67.861 55.8642 67.7556V42.0725H55.8594ZM60.5912 52.7989H66.1926C68.9789 52.7989 70.9245 51.5485 70.9245 49.431C70.9245 47.2465 69.1134 46.1685 65.914 46.1685C64.2758 46.1685 62.2246 46.1685 60.5912 46.2739V52.7989ZM60.5912 63.4919C62.263 63.6308 64.4536 63.6979 66.0917 63.6979C69.9877 63.6979 72.0102 62.5529 72.0102 60.1575C72.0102 57.6951 69.8868 56.4782 66.5481 56.4782H60.596V63.4919H60.5912Z" fill="#1D1E20"/>
<path d="M114.571 42.0723V52.7269H118.294L125.567 42.0723H130.89L122.396 54.4611L131.375 67.7554H125.807L118.601 57.0673H114.566V67.7554H109.834V42.0723H114.571V42.0723Z" fill="#1D1E20"/>
<path d="M25.3887 51.9458C24.9996 48.784 23.9187 46.5611 22.6169 45.0663L22.6217 45.0568C22.4343 44.846 22.2374 44.6448 22.0356 44.4483C21.9588 44.3765 21.8867 44.3046 21.8098 44.2327C21.7666 44.1944 21.7234 44.1513 21.6801 44.113C21.1901 43.6722 20.7097 43.3273 20.287 43.0638C18.2933 41.7895 15.8337 41.0996 13.1195 41.0996C5.39478 41.0996 0 46.6185 0 54.461C0 62.3417 5.36115 67.7553 13.1195 67.7553C17.0539 67.7553 20.4647 66.366 22.8667 63.8317L19.4895 60.3632C18.13 62.1309 15.8722 63.2089 13.2588 63.2089C8.97853 63.2089 5.46204 60.2913 5.07773 56.406H25.4464C25.4512 56.4108 25.5953 53.6466 25.3887 51.9458ZM12.985 45.6508C14.6136 45.6508 16.1076 46.058 17.3422 46.8245C18.3702 47.4617 19.1677 48.3959 19.6577 49.5026C19.9892 50.2547 20.2726 51.1937 20.3975 52.3531H5.11619C5.57257 48.3576 8.73836 45.6508 12.985 45.6508Z" fill="#1D1E20"/>
<path d="M105.682 51.9458C105.293 48.784 104.212 46.5611 102.91 45.0663L102.915 45.0568C102.727 44.846 102.53 44.6448 102.329 44.4483C102.252 44.3765 102.18 44.3046 102.103 44.2327C102.06 44.1944 102.016 44.1513 101.973 44.113C101.483 43.6722 101.003 43.3273 100.58 43.0638C98.5863 41.7895 96.1267 41.0996 93.4125 41.0996C85.6878 41.0996 80.293 46.6185 80.293 54.461C80.293 62.3417 85.6541 67.7553 93.4125 67.7553C97.3469 67.7553 100.758 66.366 103.16 63.8317L99.7825 60.3632C98.423 62.131 96.1651 63.2089 93.5518 63.2089C89.2715 63.2089 85.755 60.2913 85.3755 56.406H105.744C105.749 56.4108 105.893 53.6466 105.682 51.9458ZM93.278 45.6508C94.9065 45.6508 96.4005 46.058 97.6351 46.8245C98.6632 47.4617 99.4606 48.3959 99.9506 49.5026C100.282 50.2547 100.566 51.1937 100.69 52.3531H85.4092C85.8655 48.3576 89.0313 45.6508 93.278 45.6508Z" fill="#1D1E20"/>
<path d="M4.46379 23.6328V27.5229H8.78252V23.6328H10.5744V33.3532H8.78252V29.1996H4.46379V33.3532H2.67188V23.6328H4.46379Z" fill="#1D1E20"/>
<path d="M14.6708 33.3534H12.8789V23.633C13.8781 23.5947 15.2376 23.542 16.2368 23.542C18.6196 23.542 20.1617 24.7493 20.1617 26.6033C20.1617 27.9543 19.5035 28.8885 18.1873 29.4298L21.0841 33.3582H18.9751L16.5635 29.928H14.666V33.3534H14.6708ZM14.6708 28.3471H16.3185C17.5291 28.3471 18.2833 27.7435 18.2833 26.7422C18.2833 25.7984 17.5339 25.2331 16.3185 25.2331C15.8285 25.2331 15.1608 25.2619 14.6708 25.3002V28.3471Z" fill="#1D1E20"/>
<defs>
<linearGradient id="paint0_linear_1843_3525" x1="107.641" y1="33.2106" x2="174.248" y2="33.2106" gradientUnits="userSpaceOnUse">
<stop offset="8.07343e-08" stop-color="#2FAE7B"/>
<stop offset="0.9987" stop-color="white"/>
</linearGradient>
</defs>
</svg>
