<svg width="200" height="72" viewBox="0 0 200 72" fill="none" xmlns="http://www.w3.org/2000/svg">
<path d="M135.07 71.8579C153.491 71.8579 168.418 56.8582 168.418 38.3584H135.07V71.8579Z" fill="url(#paint0_linear_1422_3173)"/>
<path d="M173.25 38.3536C173.25 17.1688 156.155 0 135.07 0V38.3536H173.25Z" fill="url(#paint1_linear_1422_3173)"/>
<path d="M135.005 13.0469C121.091 13.0469 109.812 24.3761 109.812 38.3534H135.005V13.0469Z" fill="#BEE4F7"/>
<path d="M44.1134 71.7657V56.8581C44.1134 53.3672 41.8394 50.7145 38.4331 50.7145C35.1231 50.7145 32.9867 53.2659 32.9867 56.591V71.7657H28.4434V56.591C28.4434 50.4152 32.354 46.3164 38.5019 46.3164C44.6865 46.3164 48.6612 50.3139 48.6612 56.591V71.7657H44.1134V71.7657Z" fill="#1D1E20"/>
<path d="M53.6406 46.9194C56.6802 46.8181 60.6595 46.6846 63.6349 46.6846C69.1501 46.6846 72.7903 49.1669 72.7903 53.367C72.7903 55.9183 71.4883 57.7973 69.3473 58.875C72.2906 59.7823 73.9273 61.827 73.9273 64.885C73.9273 69.3522 70.4521 72.0003 63.8 72.0003C60.7604 72.0003 56.6802 71.8668 53.6406 71.7654V46.9194ZM58.1839 57.2953H63.5661C66.2389 57.2953 68.1095 56.0887 68.1095 54.0394C68.1095 51.9255 66.3719 50.8847 63.2957 50.8847C61.7232 50.8847 59.7518 50.8847 58.1839 50.986V57.2953ZM58.1839 67.6344C59.7885 67.768 61.8928 67.8371 63.4653 67.8371C67.2063 67.8371 69.1456 66.7272 69.1456 64.4107C69.1456 62.0251 67.1055 60.8507 63.9009 60.8507H58.1839V67.6344Z" fill="#1D1E20"/>
<path d="M110.014 46.9199V57.2267H113.59L120.577 46.9199H125.689L117.533 58.9031L126.156 71.7613H120.811L113.893 61.4222H110.014V71.7613H105.471V46.9199H110.014V46.9199Z" fill="#1D1E20"/>
<path d="M24.376 56.4715C24.0047 53.4135 22.964 51.2628 21.717 49.8167L21.7216 49.8075C21.5428 49.6003 21.3548 49.4069 21.1577 49.218C21.0843 49.149 21.0156 49.0799 20.9422 49.0108C20.901 48.974 20.8597 48.9325 20.8184 48.8957C20.3462 48.472 19.8878 48.1358 19.4798 47.8779C17.5634 46.6482 15.2024 45.9805 12.5983 45.9805C5.18054 45.9805 0 51.3181 0 58.9077C0 66.5296 5.14845 71.7659 12.5983 71.7659C16.376 71.7659 19.6494 70.4212 21.9554 67.9711L18.7141 64.6138C17.4121 66.327 15.239 67.3678 12.7313 67.3678C8.61892 67.3678 5.24468 64.5493 4.87792 60.7867H24.4356C24.4402 60.7867 24.5778 58.1156 24.376 56.4715ZM12.4654 50.3786C14.0287 50.3786 15.4637 50.7747 16.6511 51.5161C17.6368 52.1332 18.4024 53.0359 18.8746 54.1043C19.1955 54.832 19.4614 55.7439 19.5852 56.8584H4.91463C5.34558 52.9991 8.38971 50.3786 12.4654 50.3786Z" fill="#1D1E20"/>
<path d="M101.484 56.4715C101.112 53.4135 100.071 51.2628 98.8244 49.8167L98.829 49.8075C98.6502 49.6003 98.4623 49.4069 98.2651 49.218C98.1918 49.149 98.123 49.0799 98.0497 49.0108C98.0084 48.974 97.9672 48.9325 97.9259 48.8957C97.4537 48.472 96.9952 48.1358 96.5872 47.8779C94.6708 46.6482 92.3098 45.9805 89.7058 45.9805C82.288 45.9805 77.1074 51.3181 77.1074 58.9078C77.1074 66.5296 82.2559 71.766 89.7058 71.766C93.4834 71.766 96.7568 70.4212 99.0629 67.9711L95.8216 64.6138C94.5196 66.327 92.3465 67.3678 89.8387 67.3678C85.7264 67.3678 82.3522 64.5493 81.9854 60.7867H101.543C101.543 60.7867 101.681 58.1156 101.484 56.4715ZM89.5683 50.3786C91.1316 50.3786 92.5666 50.7747 93.754 51.5161C94.7396 52.1333 95.5052 53.0359 95.9775 54.1043C96.2984 54.832 96.5642 55.7439 96.688 56.8584H82.0175C82.453 52.9991 85.4926 50.3786 89.5683 50.3786Z" fill="#1D1E20"/>
<path d="M2.5625 29.0836C3.71322 29.0468 5.21696 28.9961 6.34476 28.9961C8.43073 28.9961 9.81065 29.9356 9.81065 31.5244C9.81065 32.4916 9.31554 33.2008 8.50865 33.6107C9.6227 33.9561 10.2416 34.7298 10.2416 35.8857C10.2416 37.5759 8.92587 38.5799 6.40895 38.5799C5.25822 38.5799 3.71322 38.5292 2.5625 38.4924V29.0836ZM4.28171 33.0074H6.31722C7.33041 33.0074 8.03643 32.5514 8.03643 31.7731C8.03643 30.9718 7.38085 30.5803 6.21638 30.5803C5.62038 30.5803 4.87312 30.5803 4.28171 30.6172V33.0074ZM4.28171 36.9219C4.88687 36.9726 5.68457 37.0002 6.28057 37.0002C7.69719 37.0002 8.4307 36.5811 8.4307 35.7061C8.4307 34.8035 7.66051 34.3614 6.4456 34.3614H4.28171V36.9219Z" fill="#1D1E20"/>
<path d="M13.7309 29.083V34.6233C13.7309 36.097 14.5149 37.0273 15.7298 37.0273C16.9951 37.0273 17.8066 36.0878 17.8066 34.6233V29.083H19.5258V34.8259C19.5258 37.2023 18.045 38.7128 15.7664 38.7128C13.4879 38.7128 12.0117 37.2023 12.0117 34.8259V29.083H13.7309Z" fill="#1D1E20"/>
<path d="M27.0353 31.6343C26.2376 30.8099 25.5408 30.4645 24.7339 30.4645C24.0233 30.4645 23.1659 30.7455 23.1659 31.5836C23.1659 32.56 24.4038 32.7534 25.6691 33.1218C26.9207 33.4903 28.1723 34.0245 28.1723 35.7515C28.1723 37.5292 26.8061 38.6621 24.7431 38.6621C23.276 38.6621 21.8823 38.1141 20.9883 37.1608L22.0107 35.8252C22.8222 36.6265 23.8307 37.0456 24.7431 37.0456C25.4903 37.0456 26.3477 36.7417 26.3477 35.8897C26.3477 34.8995 25.1098 34.6462 23.8536 34.2778C22.602 33.8725 21.3597 33.3521 21.3597 31.685C21.3597 29.9948 22.6616 28.9033 24.6605 28.9033C26.0771 28.9033 27.3058 29.4514 28.1127 30.3632L27.0353 31.6343Z" fill="#1D1E20"/>
<path d="M34.9513 29.083V30.5936H33.1175V36.972H34.9513V38.4826H29.5645V36.972H31.3983V30.5936H29.5645V29.083H34.9513Z" fill="#1D1E20"/>
<path d="M38.4814 29.083L43.3777 35.6779V29.083H45.0602V38.4872H43.364L38.4677 31.8785V38.4872H36.7852V29.083H38.4814Z" fill="#1D1E20"/>
<path d="M53.5608 29.083V30.6719H48.9946V32.9838H53.1803V34.5358H48.9946V36.8845H53.6892V38.4872H47.2754V29.083H53.5608Z" fill="#1D1E20"/>
<path d="M61.0334 31.6343C60.2357 30.8099 59.5388 30.4645 58.7319 30.4645C58.0213 30.4645 57.164 30.7455 57.164 31.5836C57.164 32.56 58.4018 32.7534 59.6671 33.1218C60.9187 33.4903 62.1703 34.0245 62.1703 35.7515C62.1703 37.5292 60.8042 38.6621 58.7411 38.6621C57.2741 38.6621 55.8803 38.1141 54.9863 37.1608L56.0087 35.8252C56.8201 36.6265 57.8288 37.0456 58.7411 37.0456C59.4884 37.0456 60.3457 36.7417 60.3457 35.8897C60.3457 34.8995 59.1078 34.6462 57.8517 34.2778C56.6001 33.8725 55.3577 33.3521 55.3577 31.685C55.3577 29.9948 56.6597 28.9033 58.6586 28.9033C60.0752 28.9033 61.3039 29.4514 62.1107 30.3632L61.0334 31.6343Z" fill="#1D1E20"/>
<path d="M69.3693 31.6343C68.5716 30.8099 67.8747 30.4645 67.0678 30.4645C66.3572 30.4645 65.4999 30.7455 65.4999 31.5836C65.4999 32.56 66.7377 32.7534 68.0031 33.1218C69.2547 33.4903 70.5062 34.0245 70.5062 35.7515C70.5062 37.5292 69.14 38.6621 67.077 38.6621C65.6099 38.6621 64.2163 38.1141 63.3223 37.1608L64.3446 35.8252C65.1561 36.6265 66.1647 37.0456 67.077 37.0456C67.8243 37.0456 68.6816 36.7417 68.6816 35.8897C68.6816 34.8995 67.4438 34.6462 66.1876 34.2778C64.936 33.8725 63.6936 33.3521 63.6936 31.685C63.6936 29.9948 64.9956 28.9033 66.9945 28.9033C68.4111 28.9033 69.6397 29.4514 70.4466 30.3632L69.3693 31.6343Z" fill="#1D1E20"/>
<defs>
<linearGradient id="paint0_linear_1422_3173" x1="161.968" y1="21.3468" x2="133.039" y2="79.9719" gradientUnits="userSpaceOnUse">
<stop offset="0.1994" stop-color="#58C1EF"/>
<stop offset="1" stop-color="white"/>
</linearGradient>
<linearGradient id="paint1_linear_1422_3173" x1="115.34" y1="-3.26936" x2="174.102" y2="45.7413" gradientUnits="userSpaceOnUse">
<stop offset="0.2007" stop-color="#52C3F0"/>
<stop offset="1" stop-color="white"/>
</linearGradient>
</defs>
</svg>
